<svg viewBox="0 0 67 173" xmlns="http://www.w3.org/2000/svg" xml:space="preserve" style="fill-rule:evenodd;clip-rule:evenodd;stroke-linecap:round;stroke-linejoin:round;stroke-miterlimit:1.5"><g transform="matrix(0 -.10436 .10436 0 -12.931 169.247)"><path d="M141.496 443.904s-1.784 120.894-5.187 139.796c-3.402 18.902-3.965 33.591-.49 44.888-14.489-1.497-89.819 9.296-129.08 9.895-13.074.826-21.397-130.099-19.631-194.579h154.388ZM1031.38 493.233s-31.21 88.835-45.477 109.712c-23.535 6.254-52.019 25.152-66.481 37.713-14.461 12.561-88.489 23.438-104.954 22.619-16.465-.819 114.103-165.14 114.103-165.14l102.809-4.904ZM1596.25 443.904l-96.92 267.283-143.67 1.901c-3.19 1.214 7.79-39.931 24.96-55.21 15.17-13.494 35.01-36.532 49.23-56.35 19.04-26.542 31.44-160.797 26.36-157.166l140.04-.458ZM1196.51 473.027s1.2 112.336 16.48 164.407c12.67 2.823 39.52-.945 39.52-.945s20.63-66.216 20.69-90.111c.05-23.895-.55-32.365-3.9-41.87-3.36-9.504-1.33-30.291-.23-36.729 1.09-6.439-32.13 9.393-32.13 9.393s-5.06 39.775-5.31 50.652c-.25 10.877 3.19 45.35 3.02 52.013-.17 6.664-9.24-46.129-11.65-59.231-2.41-13.102-4.33-17.594-9.13-25.047-4.8-7.453-17.36-22.532-17.36-22.532Z"/><path d="M1138.04 482.385s60.34 115.247 66.83 130.854c6.49 15.606 7.04 15.517 15.15 15.304 8.11-.214 6.73-.171 13.9-.283 7.17-.111 10.93-20.627 10.64-27.587-.29-6.961 3.23-20.846 7.05-28.586 3.83-7.74 14.02-39.522 13.68-51.064-.34-11.543-1.63-47.262-1.63-47.262l-22.78-.734s-2.46 56.177-6.03 69.357c-3.56 13.179-16.24 50.475-16.24 50.475s-54.19-100.845-57.19-114.404c-3-13.558-23.38 3.93-23.38 3.93Z" style="fill:#343434;stroke:#000;stroke-width:8.6px"/><path d="M691.733 663.321s-187.681 4.258-226.005 0c-38.324-4.259-116.199-23.932-116.199-23.932s-7.103-19.406-4.48-42.361c-24.101-17.255-179.053-34.491-217.971-35.763" style="fill:#030303"/><path d="M127.078 561.265V443.904h556.378l8.277 219.417" style="fill:#1c1c1c"/><path d="M352.115 525.347s-88.68 63.114-97.326 72.224c-8.645 9.11-15.692 28.164-15.692 28.164l-57.716 2.853s.316-27.356.705-33.59c.388-6.234-29.154-97.276-32.234-121.971-3.08-24.696 22.145-6.789 22.145-6.789s28.038 97.697 30.399 105.544c2.361 7.848 9.655 8.276 11.791-2.269 2.136-10.546 11.749-82.517 11.749-82.517l23.316-.36s-16.12 87.126-17.866 97.849c-1.746 10.724 7.687 7.731 14.899-.888 7.212-8.619 81.749-79.914 81.749-79.914l24.081 21.664Z" style="fill:#303030;stroke:#000;stroke-width:9.83px"/><path d="M331.354 700.818c-.175 18.077-2.103 39.161-23.711 40.074-25.568 1.079-141.275 3.384-158.052 3.139-16.777-.245-19.769-15.194-22.513-27.814-2.745-12.621.527-54.386 0-68.549-.528-14.164 2.809-33.771 14.418-34.429 14.185-.804 125.747.037 151.168 0 27.873-.04 37.75 8.061 38.371 25.248.621 17.187.498 43.75.319 62.331Z" style="fill:#131313"/><path d="M331.354 700.818c-.175 18.077-1.307 19.296-22.915 20.209-25.568 1.079-141.275 3.384-158.052 3.139-16.777-.245-19.108-5.647-21.853-18.268-2.745-12.62-.929-44.067-1.456-58.23-.528-14.164 2.407-31.686 14.017-32.344 14.184-.803 127.759-.698 153.18-.735 27.873-.04 36.139 6.711 36.76 23.898.621 17.187.498 43.75.319 62.331Z" style="fill:#141414" transform="translate(1006.09 7.216)"/><path d="m222.257 443.904.269 42.29-95.448-10.454v-31.836h95.179Z" style="fill:#333"/><path d="M1575.76 443.904s-21.76 29.083-49.03 31.458c-27.27 2.376-201.93 4.509-305.79 12.522-103.87 8.014-244.665 25.623-244.665 25.623s3.194 40.26-16.275 65.483c-15.784 20.448-57.287 63.461-92.597 77.715-29.193 11.785-155.82 14.133-239.43 11.368-83.609-2.765-150.947-40.974-180.299-56.874-38.886-21.066-79.859-76.228-124.291-97.277-38.669-18.318-107.536-11.916-107.536-11.916l-1.099-58.102H1575.76Z" style="fill:#ac0000"/><clipPath id="a"><path d="M1575.76 443.904s-21.76 29.083-49.03 31.458c-27.27 2.376-201.93 4.509-305.79 12.522-103.87 8.014-244.665 25.623-244.665 25.623s3.194 40.26-16.275 65.483c-15.784 20.448-57.287 63.461-92.597 77.715-29.193 11.785-155.82 14.133-239.43 11.368-83.609-2.765-150.947-40.974-180.299-56.874-38.886-21.066-79.859-76.228-124.291-97.277-38.669-18.318-107.536-11.916-107.536-11.916l-1.099-58.102H1575.76Z"/></clipPath><g clip-path="url(#a)"><path d="M976.915 548.61s-64.838 82.227-120.687 96.985c-36.786 9.72-234.65 11.388-276.034 5.017-65.958-10.154-157.233-52.107-181.241-62.867l71.138 93.452 348.175 31.918 186.564-81.559-27.915-82.946Z" style="fill:#8b0000"/><path d="M370.706 486.194s51.497-.679 93.132 3.559c41.634 4.237 141.504 52.077 221.545 52.631 80.041.553 212.075-20.108 247.796-27.335 35.722-7.228 183.531-30.707 352.221-43.502 69.81-4.637 244.97-2.614 261.59 1.528 16.62 4.143-419.62 37.118-449.17 37.603-29.54.485-97.03 4.962-137.443 13.584-40.412 8.623-169.263 62.773-250.319 63.479-81.056.706-271.344-83.54-338.484-86.009-67.141-2.469-28.784-16.689-.868-15.538Z" style="fill:#820000"/></g><path d="M732.193 443.904c0 24.384 10.573 44.676 27.337 45.849 16.763 1.172 141 .321 172.533 7.606 19.419-11.947 28.973-32.284 28.314-53.455H732.193Z" style="fill:#360000"/><path d="M890.883 443.904c0 43.229-36.391 77.232-104.868 78.768-19.231 0-17.607 12.317 1.625 12.317 10.486 0 22.369 1.255 43.048.173 47.541-2.488 87.178-59.912 99.51-74.015 12.331-14.102 30.647-12.434 47.188-12.54 16.541-.107 39.914 1.007 39.914-4.703H890.883Z" style="fill:#2e2e2e"/><path style="fill:#282828" d="M644.946 443.904h34.546v34.321h-34.546z"/></g><g transform="matrix(0 -.10436 -.10436 0 79.72 169.296)"><path d="M141.496 443.904s-1.784 120.894-5.187 139.796c-3.402 18.902-3.965 33.591-.49 44.888-14.489-1.497-89.819 9.296-129.08 9.895-13.074.826-21.397-130.099-19.631-194.579h154.388ZM1031.38 493.233s-31.21 88.835-45.477 109.712c-23.535 6.254-52.019 25.152-66.481 37.713-14.461 12.561-88.489 23.438-104.954 22.619-16.465-.819 114.103-165.14 114.103-165.14l102.809-4.904ZM1596.25 443.904l-96.92 267.283-143.67 1.901c-3.19 1.214 7.79-39.931 24.96-55.21 15.17-13.494 35.01-36.532 49.23-56.35 19.04-26.542 31.44-160.797 26.36-157.166l140.04-.458ZM1196.51 473.027s1.2 112.336 16.48 164.407c12.67 2.823 39.52-.945 39.52-.945s20.63-66.216 20.69-90.111c.05-23.895-.55-32.365-3.9-41.87-3.36-9.504-1.33-30.291-.23-36.729 1.09-6.439-32.13 9.393-32.13 9.393s-5.06 39.775-5.31 50.652c-.25 10.877 3.19 45.35 3.02 52.013-.17 6.664-9.24-46.129-11.65-59.231-2.41-13.102-4.33-17.594-9.13-25.047-4.8-7.453-17.36-22.532-17.36-22.532Z"/><path d="M1138.04 482.385s60.34 115.247 66.83 130.854c6.49 15.606 7.04 15.517 15.15 15.304 8.11-.214 6.73-.171 13.9-.283 7.17-.111 10.93-20.627 10.64-27.587-.29-6.961 3.23-20.846 7.05-28.586 3.83-7.74 14.02-39.522 13.68-51.064-.34-11.543-1.63-47.262-1.63-47.262l-22.78-.734s-2.46 56.177-6.03 69.357c-3.56 13.179-16.24 50.475-16.24 50.475s-54.19-100.845-57.19-114.404c-3-13.558-23.38 3.93-23.38 3.93Z" style="fill:#343434;stroke:#000;stroke-width:8.6px"/><path d="M691.733 663.321s-187.681 4.258-226.005 0c-38.324-4.259-116.199-23.932-116.199-23.932s-7.103-19.406-4.48-42.361c-24.101-17.255-179.053-34.491-217.971-35.763" style="fill:#030303"/><path d="M127.078 561.265V443.904h556.378l8.277 219.417" style="fill:#1c1c1c"/><path d="M352.115 525.347s-88.68 63.114-97.326 72.224c-8.645 9.11-15.692 28.164-15.692 28.164l-57.716 2.853s.316-27.356.705-33.59c.388-6.234-29.154-97.276-32.234-121.971-3.08-24.696 22.145-6.789 22.145-6.789s28.038 97.697 30.399 105.544c2.361 7.848 9.655 8.276 11.791-2.269 2.136-10.546 11.749-82.517 11.749-82.517l23.316-.36s-16.12 87.126-17.866 97.849c-1.746 10.724 7.687 7.731 14.899-.888 7.212-8.619 81.749-79.914 81.749-79.914l24.081 21.664Z" style="fill:#303030;stroke:#000;stroke-width:9.83px"/><path d="M331.354 700.818c-.175 18.077-2.103 39.161-23.711 40.074-25.568 1.079-141.275 3.384-158.052 3.139-16.777-.245-19.769-15.194-22.513-27.814-2.745-12.621.527-54.386 0-68.549-.528-14.164 2.809-33.771 14.418-34.429 14.185-.804 125.747.037 151.168 0 27.873-.04 37.75 8.061 38.371 25.248.621 17.187.498 43.75.319 62.331Z" style="fill:#131313"/><path d="M331.354 700.818c-.175 18.077-1.307 19.296-22.915 20.209-25.568 1.079-141.275 3.384-158.052 3.139-16.777-.245-19.108-5.647-21.853-18.268-2.745-12.62-.929-44.067-1.456-58.23-.528-14.164 2.407-31.686 14.017-32.344 14.184-.803 127.759-.698 153.18-.735 27.873-.04 36.139 6.711 36.76 23.898.621 17.187.498 43.75.319 62.331Z" style="fill:#141414" transform="translate(1006.09 7.216)"/><path d="m222.257 443.904.269 42.29-95.448-10.454v-31.836h95.179Z" style="fill:#333"/><path d="M1575.76 443.904s-21.76 29.083-49.03 31.458c-27.27 2.376-201.93 4.509-305.79 12.522-103.87 8.014-244.665 25.623-244.665 25.623s3.194 40.26-16.275 65.483c-15.784 20.448-57.287 63.461-92.597 77.715-29.193 11.785-155.82 14.133-239.43 11.368-83.609-2.765-150.947-40.974-180.299-56.874-38.886-21.066-79.859-76.228-124.291-97.277-38.669-18.318-107.536-11.916-107.536-11.916l-1.099-58.102H1575.76Z" style="fill:#ac0000"/><clipPath id="b"><path d="M1575.76 443.904s-21.76 29.083-49.03 31.458c-27.27 2.376-201.93 4.509-305.79 12.522-103.87 8.014-244.665 25.623-244.665 25.623s3.194 40.26-16.275 65.483c-15.784 20.448-57.287 63.461-92.597 77.715-29.193 11.785-155.82 14.133-239.43 11.368-83.609-2.765-150.947-40.974-180.299-56.874-38.886-21.066-79.859-76.228-124.291-97.277-38.669-18.318-107.536-11.916-107.536-11.916l-1.099-58.102H1575.76Z"/></clipPath><g clip-path="url(#b)"><path d="M976.915 548.61s-64.838 82.227-120.687 96.985c-36.786 9.72-234.65 11.388-276.034 5.017-65.958-10.154-157.233-52.107-181.241-62.867l71.138 93.452 348.175 31.918 186.564-81.559-27.915-82.946Z" style="fill:#8b0000"/><path d="M370.706 486.194s51.497-.679 93.132 3.559c41.634 4.237 141.504 52.077 221.545 52.631 80.041.553 212.075-20.108 247.796-27.335 35.722-7.228 183.531-30.707 352.221-43.502 69.81-4.637 244.97-2.614 261.59 1.528 16.62 4.143-419.62 37.118-449.17 37.603-29.54.485-97.03 4.962-137.443 13.584-40.412 8.623-169.263 62.773-250.319 63.479-81.056.706-271.344-83.54-338.484-86.009-67.141-2.469-28.784-16.689-.868-15.538Z" style="fill:#820000"/></g><path d="M732.193 443.904c0 24.384 10.573 44.676 27.337 45.849 16.763 1.172 141 .321 172.533 7.606 19.419-11.947 28.973-32.284 28.314-53.455H732.193Z" style="fill:#360000"/><path d="M890.883 443.904c0 43.229-36.391 77.232-104.868 78.768-19.231 0-17.607 12.317 1.625 12.317 10.486 0 22.369 1.255 43.048.173 47.541-2.488 87.178-59.912 99.51-74.015 12.331-14.102 30.647-12.434 47.188-12.54 16.541-.107 39.914 1.007 39.914-4.703H890.883Z" style="fill:#2e2e2e"/><path style="fill:#282828" d="M644.946 443.904h34.546v34.321h-34.546z"/></g><g><g transform="matrix(0 -.10436 .10436 0 -12.931 169.247)"><path d="M141.496 443.904s-1.784 120.894-5.187 139.796c-3.402 18.902-3.965 33.591-.49 44.888-14.489-1.497-89.819 9.296-129.08 9.895-13.074.826-21.397-130.099-19.631-194.579h154.388ZM1031.38 493.233s-31.21 88.835-45.477 109.712c-23.535 6.254-52.019 25.152-66.481 37.713-14.461 12.561-88.489 23.438-104.954 22.619-16.465-.819 114.103-165.14 114.103-165.14l102.809-4.904ZM1596.25 443.904l-96.92 267.283-143.67 1.901c-3.19 1.214 7.79-39.931 24.96-55.21 15.17-13.494 35.01-36.532 49.23-56.35 19.04-26.542 31.44-160.797 26.36-157.166l140.04-.458ZM1196.51 473.027s1.2 112.336 16.48 164.407c12.67 2.823 39.52-.945 39.52-.945s20.63-66.216 20.69-90.111c.05-23.895-.55-32.365-3.9-41.87-3.36-9.504-1.33-30.291-.23-36.729 1.09-6.439-32.13 9.393-32.13 9.393s-5.06 39.775-5.31 50.652c-.25 10.877 3.19 45.35 3.02 52.013-.17 6.664-9.24-46.129-11.65-59.231-2.41-13.102-4.33-17.594-9.13-25.047-4.8-7.453-17.36-22.532-17.36-22.532Z"/><path d="M1138.04 482.385s60.34 115.247 66.83 130.854c6.49 15.606 7.04 15.517 15.15 15.304 8.11-.214 6.73-.171 13.9-.283 7.17-.111 10.93-20.627 10.64-27.587-.29-6.961 3.23-20.846 7.05-28.586 3.83-7.74 14.02-39.522 13.68-51.064-.34-11.543-1.63-47.262-1.63-47.262l-22.78-.734s-2.46 56.177-6.03 69.357c-3.56 13.179-16.24 50.475-16.24 50.475s-54.19-100.845-57.19-114.404c-3-13.558-23.38 3.93-23.38 3.93Z" style="fill:#343434;stroke:#000;stroke-width:8.6px"/><path d="M691.733 663.321s-187.681 4.258-226.005 0c-38.324-4.259-116.199-23.932-116.199-23.932s-7.103-19.406-4.48-42.361c-24.101-17.255-179.053-34.491-217.971-35.763" style="fill:#030303"/><path d="M127.078 561.265V443.904h556.378l8.277 219.417" style="fill:#1c1c1c"/><path d="M352.115 525.347s-88.68 63.114-97.326 72.224c-8.645 9.11-15.692 28.164-15.692 28.164l-57.716 2.853s.316-27.356.705-33.59c.388-6.234-29.154-97.276-32.234-121.971-3.08-24.696 22.145-6.789 22.145-6.789s28.038 97.697 30.399 105.544c2.361 7.848 9.655 8.276 11.791-2.269 2.136-10.546 11.749-82.517 11.749-82.517l23.316-.36s-16.12 87.126-17.866 97.849c-1.746 10.724 7.687 7.731 14.899-.888 7.212-8.619 81.749-79.914 81.749-79.914l24.081 21.664Z" style="fill:#303030;stroke:#000;stroke-width:9.83px"/><path d="M331.354 700.818c-.175 18.077-2.103 39.161-23.711 40.074-25.568 1.079-141.275 3.384-158.052 3.139-16.777-.245-19.769-15.194-22.513-27.814-2.745-12.621.527-54.386 0-68.549-.528-14.164 2.809-33.771 14.418-34.429 14.185-.804 125.747.037 151.168 0 27.873-.04 37.75 8.061 38.371 25.248.621 17.187.498 43.75.319 62.331Z" style="fill:#131313"/><path d="M331.354 700.818c-.175 18.077-1.307 19.296-22.915 20.209-25.568 1.079-141.275 3.384-158.052 3.139-16.777-.245-19.108-5.647-21.853-18.268-2.745-12.62-.929-44.067-1.456-58.23-.528-14.164 2.407-31.686 14.017-32.344 14.184-.803 127.759-.698 153.18-.735 27.873-.04 36.139 6.711 36.76 23.898.621 17.187.498 43.75.319 62.331Z" style="fill:#141414" transform="translate(1006.09 7.216)"/><path d="m222.257 443.904.269 42.29-95.448-10.454v-31.836h95.179Z" style="fill:#333"/><path d="M1575.76 443.904s-21.76 29.083-49.03 31.458c-27.27 2.376-201.93 4.509-305.79 12.522-103.87 8.014-244.665 25.623-244.665 25.623s3.194 40.26-16.275 65.483c-15.784 20.448-57.287 63.461-92.597 77.715-29.193 11.785-155.82 14.133-239.43 11.368-83.609-2.765-150.947-40.974-180.299-56.874-38.886-21.066-79.859-76.228-124.291-97.277-38.669-18.318-107.536-11.916-107.536-11.916l-1.099-58.102H1575.76Z" style="fill:#ac0000"/><clipPath id="c"><path d="M1575.76 443.904s-21.76 29.083-49.03 31.458c-27.27 2.376-201.93 4.509-305.79 12.522-103.87 8.014-244.665 25.623-244.665 25.623s3.194 40.26-16.275 65.483c-15.784 20.448-57.287 63.461-92.597 77.715-29.193 11.785-155.82 14.133-239.43 11.368-83.609-2.765-150.947-40.974-180.299-56.874-38.886-21.066-79.859-76.228-124.291-97.277-38.669-18.318-107.536-11.916-107.536-11.916l-1.099-58.102H1575.76Z"/></clipPath><g clip-path="url(#c)"><path d="M976.915 548.61s-64.838 82.227-120.687 96.985c-36.786 9.72-234.65 11.388-276.034 5.017-65.958-10.154-157.233-52.107-181.241-62.867l71.138 93.452 348.175 31.918 186.564-81.559-27.915-82.946Z" style="fill:#8b0000"/><path d="M370.706 486.194s51.497-.679 93.132 3.559c41.634 4.237 141.504 52.077 221.545 52.631 80.041.553 212.075-20.108 247.796-27.335 35.722-7.228 183.531-30.707 352.221-43.502 69.81-4.637 244.97-2.614 261.59 1.528 16.62 4.143-419.62 37.118-449.17 37.603-29.54.485-97.03 4.962-137.443 13.584-40.412 8.623-169.263 62.773-250.319 63.479-81.056.706-271.344-83.54-338.484-86.009-67.141-2.469-28.784-16.689-.868-15.538Z" style="fill:#820000"/></g><path d="M732.193 443.904c0 24.384 10.573 44.676 27.337 45.849 16.763 1.172 141 .321 172.533 7.606 19.419-11.947 28.973-32.284 28.314-53.455H732.193Z" style="fill:#360000"/><path d="M890.883 443.904c0 43.229-36.391 77.232-104.868 78.768-19.231 0-17.607 12.317 1.625 12.317 10.486 0 22.369 1.255 43.048.173 47.541-2.488 87.178-59.912 99.51-74.015 12.331-14.102 30.647-12.434 47.188-12.54 16.541-.107 39.914 1.007 39.914-4.703H890.883Z" style="fill:#2e2e2e"/><path style="fill:#282828" d="M644.946 443.904h34.546v34.321h-34.546z"/></g><g transform="matrix(0 -.10436 -.10436 0 79.72 169.296)"><path d="M141.496 443.904s-1.784 120.894-5.187 139.796c-3.402 18.902-3.965 33.591-.49 44.888-14.489-1.497-89.819 9.296-129.08 9.895-13.074.826-21.397-130.099-19.631-194.579h154.388ZM1031.38 493.233s-31.21 88.835-45.477 109.712c-23.535 6.254-52.019 25.152-66.481 37.713-14.461 12.561-88.489 23.438-104.954 22.619-16.465-.819 114.103-165.14 114.103-165.14l102.809-4.904ZM1596.25 443.904l-96.92 267.283-143.67 1.901c-3.19 1.214 7.79-39.931 24.96-55.21 15.17-13.494 35.01-36.532 49.23-56.35 19.04-26.542 31.44-160.797 26.36-157.166l140.04-.458ZM1196.51 473.027s1.2 112.336 16.48 164.407c12.67 2.823 39.52-.945 39.52-.945s20.63-66.216 20.69-90.111c.05-23.895-.55-32.365-3.9-41.87-3.36-9.504-1.33-30.291-.23-36.729 1.09-6.439-32.13 9.393-32.13 9.393s-5.06 39.775-5.31 50.652c-.25 10.877 3.19 45.35 3.02 52.013-.17 6.664-9.24-46.129-11.65-59.231-2.41-13.102-4.33-17.594-9.13-25.047-4.8-7.453-17.36-22.532-17.36-22.532Z"/><path d="M1138.04 482.385s60.34 115.247 66.83 130.854c6.49 15.606 7.04 15.517 15.15 15.304 8.11-.214 6.73-.171 13.9-.283 7.17-.111 10.93-20.627 10.64-27.587-.29-6.961 3.23-20.846 7.05-28.586 3.83-7.74 14.02-39.522 13.68-51.064-.34-11.543-1.63-47.262-1.63-47.262l-22.78-.734s-2.46 56.177-6.03 69.357c-3.56 13.179-16.24 50.475-16.24 50.475s-54.19-100.845-57.19-114.404c-3-13.558-23.38 3.93-23.38 3.93Z" style="fill:#343434;stroke:#000;stroke-width:8.6px"/><path d="M691.733 663.321s-187.681 4.258-226.005 0c-38.324-4.259-116.199-23.932-116.199-23.932s-7.103-19.406-4.48-42.361c-24.101-17.255-179.053-34.491-217.971-35.763" style="fill:#030303"/><path d="M127.078 561.265V443.904h556.378l8.277 219.417" style="fill:#1c1c1c"/><path d="M352.115 525.347s-88.68 63.114-97.326 72.224c-8.645 9.11-15.692 28.164-15.692 28.164l-57.716 2.853s.316-27.356.705-33.59c.388-6.234-29.154-97.276-32.234-121.971-3.08-24.696 22.145-6.789 22.145-6.789s28.038 97.697 30.399 105.544c2.361 7.848 9.655 8.276 11.791-2.269 2.136-10.546 11.749-82.517 11.749-82.517l23.316-.36s-16.12 87.126-17.866 97.849c-1.746 10.724 7.687 7.731 14.899-.888 7.212-8.619 81.749-79.914 81.749-79.914l24.081 21.664Z" style="fill:#303030;stroke:#000;stroke-width:9.83px"/><path d="M331.354 700.818c-.175 18.077-2.103 39.161-23.711 40.074-25.568 1.079-141.275 3.384-158.052 3.139-16.777-.245-19.769-15.194-22.513-27.814-2.745-12.621.527-54.386 0-68.549-.528-14.164 2.809-33.771 14.418-34.429 14.185-.804 125.747.037 151.168 0 27.873-.04 37.75 8.061 38.371 25.248.621 17.187.498 43.75.319 62.331Z" style="fill:#131313"/><path d="M331.354 700.818c-.175 18.077-1.307 19.296-22.915 20.209-25.568 1.079-141.275 3.384-158.052 3.139-16.777-.245-19.108-5.647-21.853-18.268-2.745-12.62-.929-44.067-1.456-58.23-.528-14.164 2.407-31.686 14.017-32.344 14.184-.803 127.759-.698 153.18-.735 27.873-.04 36.139 6.711 36.76 23.898.621 17.187.498 43.75.319 62.331Z" style="fill:#141414" transform="translate(1006.09 7.216)"/><path d="m222.257 443.904.269 42.29-95.448-10.454v-31.836h95.179Z" style="fill:#333"/><path d="M1575.76 443.904s-21.76 29.083-49.03 31.458c-27.27 2.376-201.93 4.509-305.79 12.522-103.87 8.014-244.665 25.623-244.665 25.623s3.194 40.26-16.275 65.483c-15.784 20.448-57.287 63.461-92.597 77.715-29.193 11.785-155.82 14.133-239.43 11.368-83.609-2.765-150.947-40.974-180.299-56.874-38.886-21.066-79.859-76.228-124.291-97.277-38.669-18.318-107.536-11.916-107.536-11.916l-1.099-58.102H1575.76Z" style="fill:#ac0000"/><clipPath id="d"><path d="M1575.76 443.904s-21.76 29.083-49.03 31.458c-27.27 2.376-201.93 4.509-305.79 12.522-103.87 8.014-244.665 25.623-244.665 25.623s3.194 40.26-16.275 65.483c-15.784 20.448-57.287 63.461-92.597 77.715-29.193 11.785-155.82 14.133-239.43 11.368-83.609-2.765-150.947-40.974-180.299-56.874-38.886-21.066-79.859-76.228-124.291-97.277-38.669-18.318-107.536-11.916-107.536-11.916l-1.099-58.102H1575.76Z"/></clipPath><g clip-path="url(#d)"><path d="M976.915 548.61s-64.838 82.227-120.687 96.985c-36.786 9.72-234.65 11.388-276.034 5.017-65.958-10.154-157.233-52.107-181.241-62.867l71.138 93.452 348.175 31.918 186.564-81.559-27.915-82.946Z" style="fill:#8b0000"/><path d="M370.706 486.194s51.497-.679 93.132 3.559c41.634 4.237 141.504 52.077 221.545 52.631 80.041.553 212.075-20.108 247.796-27.335 35.722-7.228 183.531-30.707 352.221-43.502 69.81-4.637 244.97-2.614 261.59 1.528 16.62 4.143-419.62 37.118-449.17 37.603-29.54.485-97.03 4.962-137.443 13.584-40.412 8.623-169.263 62.773-250.319 63.479-81.056.706-271.344-83.54-338.484-86.009-67.141-2.469-28.784-16.689-.868-15.538Z" style="fill:#820000"/></g><path d="M732.193 443.904c0 24.384 10.573 44.676 27.337 45.849 16.763 1.172 141 .321 172.533 7.606 19.419-11.947 28.973-32.284 28.314-53.455H732.193Z" style="fill:#360000"/><path d="M890.883 443.904c0 43.229-36.391 77.232-104.868 78.768-19.231 0-17.607 12.317 1.625 12.317 10.486 0 22.369 1.255 43.048.173 47.541-2.488 87.178-59.912 99.51-74.015 12.331-14.102 30.647-12.434 47.188-12.54 16.541-.107 39.914 1.007 39.914-4.703H890.883Z" style="fill:#2e2e2e"/><path style="fill:#282828" d="M644.946 443.904h34.546v34.321h-34.546z"/></g></g></svg>