<svg viewBox="0 0 113 112" xmlns="http://www.w3.org/2000/svg" xml:space="preserve" style="fill-rule:evenodd;clip-rule:evenodd;stroke-linecap:round;stroke-linejoin:round;stroke-miterlimit:1.5"><path d="M2453.2 502.691c-53.11-243.588-253.83-378.498-459.2-374.118-501.54 10.697-596.62 424.026-517.64 658.833 53.46 158.942 120.81 218.554 210.74 240.284 91.87 22.19 481.91 125.3 610.31 150.26 120.34 23.39 145.88-7 161.55-50.55 15.68-43.55 43.5-130.508 61.97-195.7 18.47-65.193-41.72-309.753-67.73-429.009Z" style="fill:url(#a);stroke:#000;stroke-width:30px" transform="matrix(.10223 0 0 .10223 -146.67 -11.51)"/><g transform="matrix(.10223 0 0 .10223 -146.67 -11.51)"><path d="M2483.46 563.256s-524.2 33.304-564.84 35.833c-28.02 1.744-41.29-21.313-60.23-42.582-18.66-20.964-48.25-82.783-76.24-84.905-34.33-2.605-50.51 14.947-57.81 44.294-7.29 29.346-20.57 75.273-25.42 98.614-4.86 23.34-3.15 58.057 40.89 69.688 44.03 11.631 74.75 14.428 90.49 38.256 16.31 24.698 23.92 59.532 58.78 63.75 38.11 4.61 513.14 77.555 607.93 46.046 32.36-10.757 20.66-48.987 16.3-74.597-4.35-25.61-29.85-194.397-29.85-194.397Z"/><clipPath id="b"><path d="M2483.46 563.256s-524.2 33.304-564.84 35.833c-28.02 1.744-41.29-21.313-60.23-42.582-18.66-20.964-48.25-82.783-76.24-84.905-34.33-2.605-50.51 14.947-57.81 44.294-7.29 29.346-20.57 75.273-25.42 98.614-4.86 23.34-3.15 58.057 40.89 69.688 44.03 11.631 74.75 14.428 90.49 38.256 16.31 24.698 23.92 59.532 58.78 63.75 38.11 4.61 513.14 77.555 607.93 46.046 32.36-10.757 20.66-48.987 16.3-74.597-4.35-25.61-29.85-194.397-29.85-194.397Z"/></clipPath><g clip-path="url(#b)"><path d="M1857.43 222.994s228.53 99.574 266.76 321.173c38.23 221.6 53.05 328.697 28.56 426.985 66.11-117.796 102.61-100.801 97.37-164.142-5.51-66.757-20.35-180.985-32.14-261.039-12.77-86.635-201.6-312.627-360.55-322.977Z" style="fill:#fff;fill-opacity:.17"/></g></g><ellipse cx="1768.27" cy="530.996" rx="35.712" ry="41.421" style="fill:#651211" transform="matrix(.10223 0 0 .10223 -146.262 -11.562)"/><ellipse cx="1785.87" cy="635.126" rx="11.982" ry="16.387" style="fill:#373737" transform="matrix(.2289 0 0 .20064 -372.607 -74.037)"/><ellipse cx="1785.87" cy="635.126" rx="11.982" ry="16.387" style="fill:#686868" transform="matrix(.12869 0 0 .10988 -193.767 -16.343)"/><defs><radialGradient id="a" cx="0" cy="0" r="1" gradientUnits="userSpaceOnUse" gradientTransform="rotate(61.649 651.208 1870.44) scale(307.351)"><stop offset="0" style="stop-color:#c64646;stop-opacity:1"/><stop offset="1" style="stop-color:#910101;stop-opacity:1"/></radialGradient></defs></svg>