<?xml version="1.0" encoding="UTF-8" standalone="no"?>
<!DOCTYPE svg PUBLIC "-//W3C//DTD SVG 1.1//EN" "http://www.w3.org/Graphics/SVG/1.1/DTD/svg11.dtd">
<svg width="100%" height="100%" viewBox="0 0 988 222" version="1.1" xmlns="http://www.w3.org/2000/svg" style="fill-rule:evenodd;clip-rule:evenodd;stroke-linejoin:round;stroke-miterlimit:2;">
    <g transform="matrix(4.16667,0,0,4.16667,-214.362,-69.18)">
        <g transform="matrix(1,0,0,1,288.056,69.0912)">
            <path d="M0,-50.973C-0.834,-52.36 -2.329,-52.451 -2.992,-52.488L-98.796,-52.488C-101.506,-52.488 -103.701,-51.663 -105.322,-50.039C-106.485,-48.879 -107.283,-47.37 -107.698,-45.556C-107.713,-45.484 -107.84,-45.121 -108.643,-45.121L-127.579,-45.121C-128.397,-45.121 -128.508,-45.499 -128.519,-45.541C-128.936,-47.366 -129.736,-48.879 -130.898,-50.041C-132.52,-51.663 -134.713,-52.488 -137.425,-52.488L-233.241,-52.488C-233.854,-52.466 -235.385,-52.36 -236.217,-50.978C-236.617,-50.305 -236.914,-49.17 -236.051,-47.579C-236.046,-47.569 -234.297,-44.66 -234.297,-44.66C-233.586,-43.489 -232.765,-43.057 -231.043,-42.942C-231.016,-42.941 -230.219,-42.862 -229.661,-41.885L-227.873,-38.749C-227.495,-38.029 -226.606,-36.338 -223.578,-35.931C-223.527,-35.925 -222.64,-35.825 -222.154,-34.9C-222.147,-34.889 -219.947,-31.015 -219.947,-31.015C-219.305,-29.771 -218.405,-29.305 -216.77,-28.801C-216.762,-28.799 -176.694,-17.035 -176.694,-17.035C-175.333,-16.636 -174.775,-15.098 -174.775,-15.098C-173.82,-12.625 -172.577,-10.591 -166.321,-8.703C-166.316,-8.702 -133.535,0.242 -133.535,0.242C-133.134,0.375 -129.378,1.513 -126.548,-1.218C-126.549,-1.215 -118.86,-8.556 -118.86,-8.556C-118.863,-8.551 -118.543,-8.875 -118.109,-8.875C-117.676,-8.875 -117.356,-8.551 -117.353,-8.548C-117.338,-8.53 -109.666,-1.212 -109.666,-1.212C-106.841,1.515 -103.084,0.375 -102.665,0.235C-102.685,0.242 -69.915,-8.699 -69.892,-8.707C-63.64,-10.591 -62.354,-12.664 -61.446,-15.094C-61.406,-15.196 -60.87,-16.641 -59.528,-17.035C-59.528,-17.035 -53.469,-18.814 -19.465,-28.797C-17.818,-29.305 -16.915,-29.771 -16.271,-31.015L-14.084,-34.868C-13.586,-35.814 -12.714,-35.922 -12.678,-35.927C-9.613,-36.338 -8.727,-38.027 -8.348,-38.749C-8.348,-38.747 -6.561,-41.885 -6.561,-41.885C-6.004,-42.86 -5.204,-42.941 -5.172,-42.945C-3.457,-43.057 -2.636,-43.489 -1.927,-44.655C-1.928,-44.651 -0.168,-47.579 -0.168,-47.579C0.2,-48.262 0.386,-48.919 0.386,-49.536C0.386,-50.056 0.258,-50.538 0,-50.973M-105.958,-45.158C-105.623,-46.639 -104.982,-47.858 -104.062,-48.778C-102.785,-50.055 -101.015,-50.703 -98.796,-50.703L-54.778,-50.703C-56.29,-49.57 -57.086,-48.139 -57.141,-48.041C-57.649,-47.088 -58.283,-45.967 -59.042,-44.72L-106.115,-44.72C-106.017,-44.887 -105.958,-45.158 -105.958,-45.158M-165.558,-29.988C-165.566,-29.994 -165.573,-30.003 -165.581,-30.011L-165.581,-43.33L-70.649,-43.33L-70.647,-30.001C-70.65,-29.998 -70.654,-29.994 -70.657,-29.992L-165.558,-29.988ZM-166.969,-41.511L-174.754,-40.994C-175.313,-41.805 -175.831,-42.586 -176.309,-43.333L-166.969,-43.333L-166.969,-41.511ZM-166.969,-40.071L-166.969,-38.174L-172.178,-37.474C-172.743,-38.202 -173.276,-38.919 -173.783,-39.619L-166.969,-40.071ZM-166.969,-36.774L-166.969,-34.584L-169.396,-34.084C-170.019,-34.799 -170.611,-35.508 -171.179,-36.209L-166.969,-36.774ZM-166.969,-33.168L-166.969,-31.423C-167.436,-31.91 -167.89,-32.4 -168.334,-32.888C-167.784,-33 -167.323,-33.094 -166.969,-33.168M-149.427,-28.605L-140.846,-28.605L-152.826,-20.029C-154.905,-21.285 -156.93,-22.668 -158.896,-24.175C-154.397,-26.28 -150.231,-28.228 -149.427,-28.605M-160.117,-25.133C-160.224,-25.219 -162.958,-27.517 -164.12,-28.605L-152.7,-28.605L-160.117,-25.133ZM-138.465,-28.605L-133.861,-28.605L-145.666,-16.295C-147.661,-17.179 -149.613,-18.167 -151.52,-19.259C-145.855,-23.313 -139.949,-27.543 -138.465,-28.605M-131.939,-28.605L-128.024,-28.605L-137.12,-13.209C-139.572,-13.902 -141.966,-14.737 -144.306,-15.709C-139.347,-20.88 -133.378,-27.102 -131.939,-28.605M-126.415,-28.605L-123.107,-28.605L-127.905,-11.305C-130.572,-11.665 -133.182,-12.174 -135.731,-12.832C-132.244,-18.737 -127.584,-26.625 -126.415,-28.605M-109.806,-28.605L-100.491,-12.835C-103.04,-12.176 -105.649,-11.667 -108.316,-11.305L-113.113,-28.605L-109.806,-28.605ZM-108.194,-28.605L-104.281,-28.605L-91.914,-15.707C-94.251,-14.734 -96.648,-13.905 -99.102,-13.212L-108.194,-28.605ZM-102.361,-28.605L-97.755,-28.605L-84.701,-19.259C-86.606,-18.166 -88.559,-17.177 -90.553,-16.291C-94.852,-20.774 -100.029,-26.174 -102.361,-28.605M-95.374,-28.605L-86.793,-28.605L-77.324,-24.175C-79.292,-22.666 -81.316,-21.287 -83.393,-20.029C-87.961,-23.299 -92.777,-26.747 -95.374,-28.605M-83.521,-28.605L-72.099,-28.605C-73.265,-27.445 -76.011,-25.207 -76.103,-25.133C-78.881,-26.432 -81.588,-27.701 -83.521,-28.605M-69.263,-33.17L-67.885,-32.888C-68.33,-32.394 -68.79,-31.901 -69.263,-31.409L-69.263,-33.17ZM-69.263,-34.585L-69.263,-36.776L-65.038,-36.209C-65.604,-35.508 -66.2,-34.797 -66.821,-34.083C-67.911,-34.308 -68.752,-34.479 -69.263,-34.585M-69.263,-38.175L-69.263,-40.071L-62.432,-39.619C-62.938,-38.919 -63.475,-38.202 -64.037,-37.474L-69.263,-38.175ZM-69.263,-41.512L-69.263,-43.333L-59.907,-43.333C-60.384,-42.586 -60.902,-41.803 -61.461,-40.994L-69.263,-41.512ZM-137.425,-50.703C-135.205,-50.703 -133.434,-50.055 -132.159,-48.778C-131.238,-47.858 -130.599,-46.639 -130.261,-45.158C-130.261,-45.158 -130.19,-44.898 -130.104,-44.72L-177.174,-44.72C-177.894,-45.901 -179.08,-48.041 -179.08,-48.041C-179.133,-48.141 -179.927,-49.57 -181.439,-50.703L-137.425,-50.703ZM-230.913,-44.72C-232.129,-44.811 -232.39,-44.952 -232.771,-45.58C-232.77,-45.577 -234.362,-48.228 -234.486,-48.433C-234.751,-48.923 -234.84,-49.281 -234.83,-49.538C-234.801,-50.184 -234.357,-50.685 -233.197,-50.703L-185.441,-50.7C-182.206,-50.7 -180.301,-47.382 -180.301,-47.382C-179.88,-46.599 -179.377,-45.704 -178.792,-44.72L-230.913,-44.72ZM-224.441,-37.95C-225.658,-38.37 -226.045,-39.1 -226.293,-39.577C-227.038,-40.839 -228.015,-42.731 -228.497,-43.333L-177.947,-43.333C-177.464,-42.558 -176.936,-41.741 -176.358,-40.888L-220.705,-37.945C-221.404,-37.859 -223.427,-37.698 -224.441,-37.95M-216.249,-31.564C-217.861,-31.348 -218.367,-31.882 -218.463,-32.009L-220.584,-35.747C-220.731,-36.025 -220.899,-36.259 -221.076,-36.464C-220.805,-36.487 -175.407,-39.511 -175.407,-39.511C-174.891,-38.78 -174.343,-38.027 -173.761,-37.262L-216.249,-31.564ZM-205.947,-27.48C-210.349,-28.774 -213.924,-29.823 -215.453,-30.272L-172.779,-35.996C-172.196,-35.261 -171.588,-34.516 -170.948,-33.765L-200.146,-27.766C-201.231,-27.541 -204.342,-27.062 -205.947,-27.48M-191.479,-23.233C-194.735,-24.188 -198.169,-25.197 -201.41,-26.149C-200.546,-26.268 -199.932,-26.394 -199.866,-26.408C-199.867,-26.408 -178.711,-30.755 -169.903,-32.564C-169.035,-31.588 -168.119,-30.605 -167.15,-29.624L-186.713,-23.589C-186.758,-23.575 -189.426,-22.688 -191.479,-23.233M-176.222,-18.753C-176.64,-18.876 -181.286,-20.239 -187.274,-21.999C-186.702,-22.129 -186.329,-22.254 -186.285,-22.269C-186.302,-22.264 -169.865,-27.334 -166.035,-28.516C-164.629,-27.153 -163.124,-25.799 -161.513,-24.479L-172.094,-19.528C-172.792,-19.175 -174.834,-18.378 -176.222,-18.753M-167.745,-11.061C-171.884,-12.622 -172.503,-14.177 -173.093,-15.688C-173.14,-15.823 -173.443,-16.625 -174.122,-17.396C-172.721,-17.66 -171.561,-18.245 -171.485,-18.284C-171.495,-18.278 -165.889,-20.902 -160.308,-23.514C-158.283,-21.928 -156.197,-20.473 -154.054,-19.151L-163.942,-12.072C-163.979,-12.047 -166.027,-10.521 -167.745,-11.061M-155.875,-7.7L-164.64,-10.091C-163.769,-10.472 -163.17,-10.918 -163.119,-10.957C-163.126,-10.952 -158.224,-14.462 -152.757,-18.373C-150.781,-17.216 -148.758,-16.166 -146.687,-15.228L-152.441,-9.228C-152.958,-8.69 -154.562,-7.39 -155.875,-7.7M-143.715,-4.382L-153.148,-6.956C-152.169,-7.515 -151.491,-8.214 -151.439,-8.27C-151.441,-8.27 -148.742,-11.083 -145.337,-14.634C-142.903,-13.598 -140.408,-12.708 -137.852,-11.971L-140.968,-6.694C-141.348,-6.011 -142.621,-4.212 -143.715,-4.382M-129.874,-4.201C-129.877,-4.185 -130.252,-2.497 -131.43,-1.781C-131.966,-1.456 -132.587,-1.38 -133.322,-1.547L-141.568,-3.797C-140.559,-4.618 -139.883,-5.791 -139.766,-6.006C-139.767,-6 -138.368,-8.369 -136.466,-11.588C-133.8,-10.883 -131.073,-10.337 -128.28,-9.953L-129.874,-4.201ZM-127.784,-2.5C-128.415,-1.892 -129.118,-1.55 -129.8,-1.369C-128.889,-2.397 -128.567,-3.691 -128.522,-3.893L-126.891,-9.775C-124.841,-9.535 -122.759,-9.379 -120.646,-9.31C-122.334,-7.7 -127.784,-2.5 -127.784,-2.5M-126.514,-11.132L-121.668,-28.605L-118.804,-28.605L-118.804,-10.661C-121.424,-10.685 -123.993,-10.844 -126.514,-11.132M-117.417,-10.66L-117.417,-28.605L-114.553,-28.605L-109.707,-11.132C-112.228,-10.841 -114.796,-10.683 -117.417,-10.66M-109.632,-3.64C-109.632,-3.64 -114.072,-7.877 -115.576,-9.31C-113.461,-9.382 -111.38,-9.536 -109.331,-9.778L-107.698,-3.89C-107.651,-3.682 -107.329,-2.392 -106.421,-1.369C-107.669,-1.723 -108.048,-2.096 -109.632,-3.64M-102.9,-1.547C-103.634,-1.38 -104.255,-1.456 -104.79,-1.781C-105.938,-2.479 -106.322,-4.095 -106.346,-4.193L-107.941,-9.956C-105.151,-10.342 -102.422,-10.887 -99.757,-11.593L-96.446,-5.988C-96.333,-5.785 -95.659,-4.615 -94.654,-3.797L-102.9,-1.547ZM-92.507,-4.382C-93.601,-4.212 -94.873,-6.011 -95.242,-6.677L-98.372,-11.976C-95.815,-12.713 -93.317,-13.598 -90.884,-14.633L-84.78,-8.268C-84.728,-8.214 -84.053,-7.513 -83.074,-6.956L-92.507,-4.382ZM-78.784,-8.125L-80.346,-7.7C-81.66,-7.389 -83.263,-8.69 -83.778,-9.226C-83.778,-9.226 -86.294,-11.85 -89.532,-15.226C-87.46,-16.165 -85.437,-17.214 -83.461,-18.373L-73.086,-10.945C-73.042,-10.911 -72.449,-10.468 -71.582,-10.091C-73.883,-9.464 -78.784,-8.125 -78.784,-8.125M-63.124,-15.694C-63.714,-14.183 -64.33,-12.623 -68.489,-11.056C-70.204,-10.53 -72.242,-12.047 -72.264,-12.062C-72.27,-12.067 -76.895,-15.377 -82.167,-19.151C-80.024,-20.475 -77.937,-21.927 -75.91,-23.512L-64.716,-18.272C-64.653,-18.24 -63.495,-17.66 -62.098,-17.396C-62.769,-16.636 -63.07,-15.847 -63.124,-15.694M-59.994,-18.753C-61.382,-18.376 -63.429,-19.175 -64.106,-19.518C-64.106,-19.518 -69.337,-21.967 -74.705,-24.479C-73.094,-25.797 -71.59,-27.151 -70.185,-28.516L-49.916,-22.264C-49.88,-22.251 -49.513,-22.128 -48.947,-21.999L-59.994,-18.753ZM-44.731,-23.235C-46.784,-22.686 -49.463,-23.575 -49.489,-23.583L-49.522,-23.594C-49.522,-23.594 -49.527,-23.594 -49.53,-23.596L-69.069,-29.622C-68.101,-30.605 -67.181,-31.587 -66.315,-32.564L-36.354,-26.408C-36.289,-26.394 -35.672,-26.268 -34.812,-26.149L-44.731,-23.235ZM-30.259,-27.484C-31.858,-27.058 -34.985,-27.539 -36.072,-27.766C-36.074,-27.766 -56.058,-31.871 -65.27,-33.765C-64.629,-34.515 -64.018,-35.26 -63.437,-35.994L-20.768,-30.272L-30.259,-27.484ZM-15.646,-35.727C-15.636,-35.744 -17.391,-32.653 -17.754,-32.012C-17.845,-31.891 -18.344,-31.347 -19.971,-31.564L-62.454,-37.262C-61.875,-38.027 -61.321,-38.78 -60.808,-39.511L-15.67,-36.516C-15.605,-36.508 -15.415,-36.487 -15.143,-36.464C-15.327,-36.252 -15.496,-36.01 -15.646,-35.727M-8.107,-42.77L-9.927,-39.576C-10.175,-39.102 -10.563,-38.372 -11.776,-37.95C-12.791,-37.698 -14.816,-37.859 -15.516,-37.945L-59.854,-40.888C-59.28,-41.739 -58.751,-42.558 -58.269,-43.333L-7.724,-43.333C-7.858,-43.167 -7.987,-42.98 -8.107,-42.77M-1.734,-48.433C-1.757,-48.393 -3.45,-45.577 -3.45,-45.577C-3.772,-45.047 -3.973,-44.808 -5.295,-44.72L-57.425,-44.72C-56.84,-45.704 -56.339,-46.599 -55.919,-47.382C-55.902,-47.411 -54.062,-50.7 -50.778,-50.7L-3.023,-50.703C-2.524,-50.683 -1.872,-50.623 -1.53,-50.058C-1.484,-49.982 -1.391,-49.821 -1.391,-49.538C-1.391,-49.281 -1.47,-48.923 -1.734,-48.433" style="fill:white;fill-rule:nonzero;"/>
        </g>
        <g transform="matrix(1,0,0,1,128.787,36.9692)">
            <path d="M0,-9.079L-0.399,-9.079L-4.457,0L-3.355,0L-3.339,-0.058C-3.009,-1.16 -2.586,-2.215 -2.176,-3.235C-2.176,-3.235 -2.119,-3.38 -2.092,-3.445L1.045,-3.445C1.47,-2.482 1.901,-1.374 2.367,-0.054L2.386,0L3.903,0L0,-9.079ZM-1.786,-4.141C-1.702,-4.337 -0.636,-6.836 -0.51,-7.13C-0.383,-6.837 0.701,-4.339 0.785,-4.141L-1.786,-4.141Z" style="fill:white;fill-rule:nonzero;"/>
        </g>
        <g transform="matrix(1,0,0,1,133.126,28.6923)">
            <path d="M0,7.628L0.032,7.664C0.515,8.187 1.596,8.429 2.174,8.429C4.079,8.429 5.411,7.201 5.411,5.442C5.411,3.979 4.307,3.545 3.238,3.125C2.285,2.75 1.386,2.397 1.386,1.32C1.386,0.5 2.03,-0.095 2.916,-0.095C3.622,-0.095 4.161,0.281 4.429,0.964L4.448,1.014L4.688,1.014L5.069,-0.129L5.026,-0.167C4.507,-0.635 3.715,-0.801 3.148,-0.801C1.374,-0.801 0.229,0.19 0.229,1.728C0.229,3.293 1.396,3.753 2.425,4.156C3.352,4.519 4.228,4.863 4.228,5.937C4.228,6.939 3.482,7.723 2.532,7.723C1.667,7.723 1.086,7.349 0.53,6.434L0.506,6.396L0.266,6.396L0,7.628Z" style="fill:white;fill-rule:nonzero;"/>
        </g>
        <g transform="matrix(1,0,0,1,145.699,36.9981)">
            <path d="M0.08,-8.918L-6.674,-8.918L-6.674,-7.981L-6.587,-7.991C-5.822,-8.074 -5.08,-8.143 -3.873,-8.147L-3.873,0L-2.589,0L-2.589,-8.145C-1.687,-8.143 -0.817,-8.092 -0.01,-7.991L0.08,-7.98L0.08,-8.918Z" style="fill:white;fill-rule:nonzero;"/>
        </g>
        <g transform="matrix(1,0,0,1,150.297,37.1212)">
            <path d="M0,-9.231C-2.832,-9.231 -4.81,-7.324 -4.81,-4.595C-4.81,-1.847 -2.886,0 -0.024,0C2.936,0 4.923,-1.922 4.923,-4.786C4.923,-7.857 2.451,-9.231 0,-9.231M2.369,-1.585C1.743,-0.916 0.95,-0.577 0.011,-0.577C-2.06,-0.577 -3.399,-2.094 -3.399,-4.441C-3.399,-7.038 -2.049,-8.65 0.127,-8.65C1.153,-8.65 2.123,-8.2 2.722,-7.445C3.378,-6.603 3.513,-5.731 3.513,-4.684C3.516,-4.626 3.518,-4.564 3.518,-4.501C3.518,-3.651 3.173,-2.439 2.369,-1.585" style="fill:white;fill-rule:nonzero;"/>
        </g>
        <g transform="matrix(1,0,0,1,164.109,36.9691)">
            <path d="M0.08,-8.889L-0.795,-8.889L-0.795,-2.314L-0.809,-2.314C-0.855,-2.365 -6.879,-8.889 -6.879,-8.889L-7.493,-8.889L-7.493,0L-6.621,0L-6.621,-6.877L-6.602,-6.877C-6.557,-6.826 -1.106,-0.802 -1.106,-0.802L-0.425,-0.003L-0.385,0L0.08,0L0.08,-8.889Z" style="fill:white;fill-rule:nonzero;"/>
        </g>
        <g transform="matrix(1,0,0,1,178.472,36.9691)">
            <path d="M0.072,-8.889L-0.313,-8.889L-2.468,-4.984C-2.468,-4.984 -3.828,-2.506 -3.951,-2.28C-5.279,-4.493 -6.477,-6.826 -7.495,-8.846L-7.516,-8.889L-7.968,-8.889L-7.978,-8.817C-8.101,-7.503 -8.868,-2.155 -9.201,-0.093L-9.216,0L-8.14,0L-8.14,-0.079C-8.14,-1.332 -7.918,-3.2 -7.684,-5.178C-7.684,-5.178 -7.582,-6.052 -7.541,-6.402C-7.39,-6.117 -5.716,-2.936 -5.079,-1.626L-4.354,-0.139L-4.112,-0.139L-4.092,-0.188C-3.349,-1.897 -2.302,-3.849 -0.865,-6.417C-0.661,-4.887 -0.391,-1.826 -0.243,-0.072L-0.236,0L1.125,0L1.113,-0.091C0.81,-2.245 0.472,-5.099 0.079,-8.819L0.072,-8.889Z" style="fill:white;fill-rule:nonzero;"/>
        </g>
        <g transform="matrix(1,0,0,1,184.567,36.9692)">
            <path d="M0,-9.079L-0.397,-9.079L-4.456,0L-3.353,0L-3.337,-0.058C-3.007,-1.167 -2.581,-2.228 -2.169,-3.256C-2.169,-3.256 -2.118,-3.383 -2.094,-3.445L1.045,-3.445C1.477,-2.463 1.922,-1.325 2.365,-0.054L2.385,0L3.902,0L0,-9.079ZM-1.783,-4.141C-1.701,-4.337 -0.634,-6.836 -0.511,-7.13C-0.382,-6.837 0.703,-4.339 0.787,-4.141L-1.783,-4.141Z" style="fill:white;fill-rule:nonzero;"/>
        </g>
        <g transform="matrix(1,0,0,1,192.375,32.4747)">
            <path d="M0,0.1C1.604,-0.224 2.563,-1.139 2.563,-2.376C2.563,-3.734 1.607,-4.395 -0.355,-4.395L-3.144,-4.395L-3.144,4.495L-1.859,4.495L-1.859,0.233L-1.491,0.233C-1.445,0.285 -0.493,1.403 -0.493,1.403C-0.496,1.401 1.013,3.354 1.013,3.354L1.842,4.495L3.514,4.495C3.514,4.495 0.149,0.286 0,0.1M-1.859,-0.407L-1.859,-3.766C-1.335,-3.791 -0.52,-3.825 -0.076,-3.753C0.814,-3.608 1.265,-3.093 1.265,-2.22C1.265,-1.328 0.677,-0.677 -0.308,-0.475C-0.864,-0.364 -1.537,-0.388 -1.859,-0.407" style="fill:white;fill-rule:nonzero;"/>
        </g>
        <g transform="matrix(1,0,0,1,202.335,36.9981)">
            <path d="M0.078,-8.918L-6.676,-8.918L-6.676,-7.981L-6.589,-7.991C-5.823,-8.074 -5.081,-8.143 -3.878,-8.147L-3.878,0L-2.592,0L-2.592,-8.145C-1.687,-8.143 -0.816,-8.092 -0.01,-7.991L0.078,-7.98L0.078,-8.918Z" style="fill:white;fill-rule:nonzero;"/>
        </g>
        <g transform="matrix(1,0,0,1,0,-76.681)">
            <rect x="203.468" y="104.761" width="1.209" height="8.889" style="fill:white;"/>
        </g>
        <g transform="matrix(1,0,0,1,213.265,36.9691)">
            <path d="M0,-8.889L0,-2.314L-0.013,-2.314C-0.057,-2.365 -6.081,-8.889 -6.081,-8.889L-6.694,-8.889L-6.694,0L-5.823,0L-5.823,-6.877L-5.808,-6.877C-5.761,-6.826 -0.309,-0.802 -0.309,-0.802L0.377,-0.003L0.876,0L0.876,-8.889L0,-8.889Z" style="fill:white;fill-rule:nonzero;"/>
        </g>
    </g>
</svg>
