<svg viewBox="0 0 34 46" xmlns="http://www.w3.org/2000/svg" xml:space="preserve" style="fill-rule:evenodd;clip-rule:evenodd;stroke-linejoin:round;stroke-miterlimit:2"><path d="M33.307 4.12v.852L16.782 2.076.259 4.972V4.12l16.523-2.915L33.307 4.12Z" style="fill:#fff"/><path d="M33.307 3.249v.871L16.782 1.205.259 4.12v-.871L16.782.335l16.525 2.914Z" style="fill:#33a457"/><path d="M33.307 4.972 16.782 2.076.259 4.972V7.91l.144-.081c.058-.033 5.921-3.283 16.411-3.283 10.491 0 16.286 3.251 16.345 3.284l.141.081.007-2.939Z" style="fill:#cc2131"/><path d="M16.815 5.114c9.473 0 15.02 2.665 15.919 3.133v8.459c0 4.612-1.086 9.207-3.227 13.658-4.687 9.724-11.738 13.542-12.724 14.04-.987-.498-8.044-4.316-12.729-14.04C1.913 25.913.827 21.318.827 16.706V8.248c.907-.467 6.513-3.134 15.988-3.134Z" style="fill:#fff22d"/><path d="M.403 7.829.26 7.91v8.796c0 4.699 1.104 9.377 3.283 13.903 5.114 10.618 13.043 14.333 13.122 14.369l.118.054.117-.054c.08-.036 8.002-3.752 13.116-14.369 2.18-4.526 3.285-9.204 3.285-13.903V7.911l-.142-.082c-.058-.032-5.854-3.284-16.344-3.284C6.324 4.545.461 7.796.403 7.829Zm16.412-2.715c9.473 0 15.02 2.665 15.919 3.133v8.459c0 4.612-1.086 9.207-3.227 13.658-4.687 9.724-11.738 13.542-12.724 14.04-.987-.498-8.044-4.316-12.729-14.04C1.913 25.913.827 21.318.827 16.706V8.248c.907-.467 6.513-3.134 15.988-3.134Z"/><path d="M19.296 36.206c.275.191.075.521-.128.573-.213.057-.394-.178-.497.08-.057.139.099 1.189 1.174 1.189 1.002 0 1.481-1.288 1.575-1.481.095-.194.156-.44.061-.44-.44 0-.568.261-.568.261s-.033-.251.185-.441c.181-.155.417-.117.503-.117.179 0 .151-.134.259-.398.247-.622.417-.65.577-.934.133-.23-.118-.321-.614-.368-.497-.047-.763-.027-.985.006-.223.031-.444.122-.582.462-.074.184.061.366.322.319.26-.049.51-.246.51-.246s-.117.466-.505.563c-.36.088-.786-.129-.728-.493.074-.473.401-.82.997-.936.597-.121 1.192-.029 1.723.102.529.133.919.053 1.41.024 1.061-.057 1.718-.307 1.718-.307s-.478.388-1.14.567c-.663.181-1.254.106-1.445.181-.154.066-.372.372-.552.723-.165.322-.341.693-.265.693.616.023.841-.112.841-.112s-.122.266-.415.392c-.204.082-.55.082-.55.082s-.155.393-.33.749c-.176.354-.465.908-.984 1.183-.522.273-1.519.615-2.148-.289-.664-.948-.058-2.026.581-1.587Zm-7.713.124a.331.331 0 0 1-.289.477c-.152 0-.341-.112-.38.078-.036.188.403 1.158 1.425 1.158s1.496-.591 1.424-1.121c-.08-.592-1.02-.827-1.769-1.221-.366-.192-1.195-.321-1.195-1.096 0-1.656 2.52-.598 2.52-.598s.005-.207.123-.217c.056-.005.17-.028.208.16.038.188.204 1.183.204 1.183s-.37-.757-1.386-1.088c-.18-.063-.966-.213-.962.41.01.369.46.535 1.241.838 1.026.403 1.552.777 1.309 1.856-.23 1.036-1.243 1.206-1.735 1.206s-1.623-.344-1.623-1.481c0-.804.789-.785.885-.544Zm5.384-6.225.414.196c.238.092.391.051.445.029.058-.025.277-.26.324-.46.023-.081.011-.152-.033-.204-.161-.191-.446-1.067-.551-1.54-.04-.176.008-.661.045-1.051.032-.336.052-.544.035-.598-.028-.082-.152-.163-.294-.253l-.226-.153c-.12-.099-.126-.233-.132-.377l-.024-.223c-.052-.208-1.111-1.29-1.275-1.3-.238-.015-.3.246-.315.403-.01.091.096.501.192.865l.106.438c.108.689.84 1.902 1.153 2.42l.148.252c.064.146.039.261-.075.326-.11.063-1.062-.036-1.517-.141a5.039 5.039 0 0 1-.672-.237c-.269-.108-.524-.212-.672-.219a.593.593 0 0 0-.317.055l-.103.029-.103-.033c-.126-.056-.362-.158-1.006-.216-.938-.088-1.008.101-1.046.203-.047.129.527.739.629.821.13.105.552.266.81.223.295-.047.775-.107.834-.095l.097.059.09.064c.081.033.605.062.764.07.183.01.663.11 1.014.183l.392.079c.154.028.549.224.869.385Z"/><path d="M26.673 17.937c-.021-.026-.038-.027-.049-.024-.01.003-.024.012-.028.043-.017.131-.181.466-.311.516-.264.102-.4.411-.499.637-.051.116-.1.227-.14.228-.016.002-.035-.017-.055-.054-.163-.28-.072-.709.001-1.054l.017-.085c.06-.291.4-.699.604-.944l.09-.108c.139-.173.174-.759.148-.803-.009-.003-.014.002-.018.007l-.008.009h-.003v.003c-.008.009-.015.01-.022.04-.036.183-.371.555-.943 1.049-.117.102-.25.285-.36.432-.07.097-.153.208-.175.214-.141-.756.115-1.188.237-1.397l.056-.106c.242-.658.865-1.157.872-1.161.008-.019.008-.04-.007-.053-.024-.018-.068-.01-.137.024l-.037.019c-.218.106-.873.425-1.275 1.194a3.69 3.69 0 0 0-.4 1.638c0 .238.029.435.078.566.141.376.388 1.312.464 1.679.047.228.055 1.009.055 1.499l-.001.413c-.002 0-.125.398-.125.398 0 .004-.06.314-.567.833-.511.521-1.079.687-1.084.689-.229.018-.437.008-.444-.021 0-.596-1.021-1.983-1.544-2.441a10.79 10.79 0 0 0-1.683-1.242c-.737-.449-1.556-2.33-1.566-2.348l-.071-.254-.05-.639.061.037.252.146.288.111.378.074.21.108.195.127.303.219.311.163c.006.002.374.021.374.021l.008-.03-.426-.2c0-.006-.153-.268-.153-.268l-.179-.257a61.777 61.777 0 0 0-.221-.132 12.804 12.804 0 0 0-.273-.039c0-.002-.054-.048-.082-.073l.069-.042c0 .003.293.037.294.037 0 .003.261.18.261.18l.284.22.27.105.035.013-.117-.302c-.072-.07-.145-.139-.219-.207l-.323-.275-.253-.131-.27-.091-.283-.181.005-.036.392.157.341.092.285.109.409.199c.004.002.343.076.343.076.006 0 .42-.074.42-.074a65.4 65.4 0 0 0 .399-.276l.077-.171.015-.038-.126.053-.358.181-.247.055-.28-.056h.001c0-.003-.226-.213-.226-.213l-.321-.311-.29-.149c-.004-.002-.344-.056-.344-.056l-.21-.108c.001 0 .002-.004.002-.009 0-.025-.007-.08-.009-.105l.427.036.467-.038c0 .002.263.055.263.055l.267.11.272.037.049.007-.304-.291-.306-.221-.254-.094-.431-.037c.003 0 .004-.007.004-.017a.612.612 0 0 0-.007-.081l.198-.033.316.072.3.181.324.111c.009 0 .472-.073.472-.073l.028-.003-.141-.187c-.008-.006-.241-.078-.241-.078 0-.002-.193-.144-.193-.144l-.286-.201c-.004-.003-.218-.075-.218-.075a26.886 26.886 0 0 0-.342-.056c0-.003-.166-.156-.169-.159a.322.322 0 0 0 .019-.078l.178.05.23.109.325.104-.072-.144-.126-.132-.111-.143.048-.012c0 .004.347.181.347.181l.27.092.208.197c.003.003.398.225.398.225l.04.023-.072-.193a47.218 47.218 0 0 0-.216-.278l-.179-.309a51.673 51.673 0 0 0-.324-.331 43.623 43.623 0 0 0-.415-.223c0-.002-.156-.179-.156-.179a39.652 39.652 0 0 1-.287-.293 5.14 5.14 0 0 0-.044-.155l.278.092.322.091.229.144.191.233c.007.006.312.134.312.134l.776.101.046.005-.214-.224c-.005-.004-.416-.187-.416-.187l-.247-.18c0-.003-.138-.251-.138-.251l-.144-.255a41.817 41.817 0 0 0-.235-.223l-.29-.167-.283-.236-.112-.237.197.189.375.329.292.131.245.198.285.291c.01.005.456.068.456.068l.055.008-.452-.392c0-.007-.102-.321-.102-.321l-.237-.226-.123-.145c0-.004-.123-.378-.123-.378a31.024 31.024 0 0 0-.255-.261c0-.002-.409-.383-.41-.385 0-.006-.014-.064-.023-.103l.074.039.376.218c.003.002.45.13.45.13l.466.11.538.086-.127-.256a7.055 7.055 0 0 0-.276-.117l-.249-.145-.306-.129-.267-.11c0-.002-.173-.226-.27-.35l.236.16c.007.002.241.021.241.021h.734c0 .002.297.163.297.163l.253.274.033.036-.031-.308c-.003-.009-.164-.21-.164-.21a52.82 52.82 0 0 0-.434-.241l-.342-.129a114.69 114.69 0 0 0-.52-.092v-.001c0-.004-.099-.122-.099-.122l-.376-.348-.183-.093-.093-.097h.193c0 .003.296.18.296.18.002.002.397.129.397.129l.503.074h-.001c0 .005.187.214.187.214l.272.167c.103.019.207.038.31.055l.043.007-.636-.78a25.712 25.712 0 0 0-.309-.168l-.359-.111c0-.004-.315-.36-.315-.36a38.6 38.6 0 0 0-.397-.241l-.286-.07.077-.127c.001.003.315-.139.315-.139l.461-.09a.687.687 0 0 0 .047-.121 1.775 1.775 0 0 0-.202-.146l-.236-.075a1.545 1.545 0 0 0-.139.075c0-.002-.386.015-.386.015l-.461-.109c0-.002-.475-.398-.475-.398l-.218-.111a329.5 329.5 0 0 0-.792-.093c0-.01-.184-.285-.184-.285l-.253-.276-.321-.29-.01.021-.107.237-.106.162V7c0 .031.015.189.015.189.005.01.109.117.111.12-.005 0-.039.165-.039.166-.001-.011-.431.006-.431.006 0-.002-.351-.163-.351-.163a89.807 89.807 0 0 0-.271-.092c-.006-.002-.631.017-.631.017-.014.007-.12.172-.12.172l-.014.021.275.04.064.041-.071.058c0-.004-.383-.021-.383-.021-.006.001-.275.11-.275.11l-.028.012.133.09c.009.003.581.021.581.021l.424.109v.001c0 .006.081.121.081.121s.058.081.079.113l-.182.1c.003 0-.516.219-.516.219l-1.073.602c-.001-.001-.707.105-.707.105-.005.001-.276.152-.276.152-.006.004-.223.306-.223.306-.003.003-.126.379-.126.379-.009.637.016.652.025.657.021.013.205.117.348.041.161-.088.506-.174.685-.212.089-.018.13.014.138.046.009.036-.017.085-.083.103l-.038.011c-.311.085-.629.187-.619.308l.055.091c.139.102.501.054.693.01l.2-.056c.173-.053.37-.111.537-.092.097.011.183.052.284.1.137.066.293.141.526.156.389.027.655.106.675.129.053.106.019.263-.007.389l-.02.114c-.109.987-1.211 2.103-1.742 2.639-.144.144-.238.24-.259.28l-.061.141c-.051.131-.093.244-.262.312-.097.038-.324.209-.588.406-.38.284-.852.637-.982.621-.217-.025-1.233-.724-1.276-.767-.989-.957-1.403-.761-1.65-.644l-.039.018c-.295.135-.605.97-.633 1.15l-.12.514-.092.379c-.027.127-.149.442-.265.745l-.238.662a4.08 4.08 0 0 1-.213.542l-.106.258c-.073.302-.075 1.958.053 2.105l.006.006.025.007c.129-.013.404-.297.537-.434l.03-.032c.112-.113.231-.413.231-.539a2.19 2.19 0 0 0-.081-.452c-.179-.547-.111-1.068-.079-1.318l.013-.111c.01-.116.126-.245.239-.368l.142-.165a.495.495 0 0 1 .243-.169l.128-.073.02-.021c.084-.084.226-.227.288-.419l.121-.523.026-.14c.006-.028.021-.044.044-.049.048-.01.12.028.151.069l.875 1.015c.225.191.455.419.455.469v.005h-.005c-.123.013-.74-.119-.842-.148-.838-.246-1.221-.202-1.516.167-.336.423-.23 1.718-.161 1.86.063.129.369 1.707.383 1.917.014.206.094.575.177.66l.023.023c.103.102.375.376.423.645.052.294.676 1.08.913 1.15a.116.116 0 0 0 .105-.02c.182-.129.264-.758.274-1.023.012-.331-.107-.491-.233-.662l-.049-.067c-.092-.127-.256-.173-.364-.203-.046-.013-.109-.028-.109-.043 0-.004-.013-.489-.167-.583-.121-.074-.244-.542-.258-.72-.014-.176-.083-.603-.174-.79a1.568 1.568 0 0 1-.132-.803c.017-.115.099-.151.165-.162.115-.018.248.032.269.072.045.092.929.625 1.227.739.186.071.436.282.657.471.158.132.293.246.377.286.114.055.437.061.697.066.137.003.28.006.3.017-.106.043-.104.227-.096.287.108.764 2.886 2.861 3.101 2.979.249.134 1.141 1.065 1.219 1.192.081.125.16.261.145.366a.619.619 0 0 0 .165.476.58.58 0 0 0 .416.216c.124 0 .207-.111.269-.192l.013-.017c.165-.219.411-.54.443-1.043.034-.516.27-.721.346-.734.035-.006.06.004.069.027.009.023-.002.062-.049.093-.101.069-.165.297-.235.541l-.026.249c-.005.184-.012.393-.197.596-.275.299-.592.987-.674 1.856-.049.524.187 1.278.701 2.24l.036.068.139.234c.14.226.375.602.365.69-.015.124-.027.221-.241.49-.236.296-1.095 1.296-1.179 1.312-.171 0-.2.021-.337.126l-.145.11c-.159.113-.187.197-.213.272a.294.294 0 0 1-.112.16l-.056.037c-.011.01-.042.054-.387.4-.396.391-.573.834-.512 1.274.019.138.138.186.489.202.351.016 1.156-.547 1.192-.73l.012-.07c.031-.165.083-.444.174-.484.11-.048.298-.266.436-.424l.027-.029c.073-.085.091-.17.109-.25.015-.064.028-.128.07-.186a.341.341 0 0 1 .137-.092.59.59 0 0 0 .338-.36c.096-.238.672-.651 1.092-.951.214-.153.383-.275.423-.329.055-.072.089-.21.089-.357 0-.175-.047-.36-.156-.464-.16-.148-.31-.588-.355-.726v-.003c0-.058-.005-.162-.014-.357l-.001-.027c0-.516.767-1.021 1.098-1.238l.151-.105c1.201-1.059 1.436-1.864 1.481-2.085l.024-.265c.007-.183.014-.358.124-.381.043-.008.115.027.159.079.025.028.062.087.037.155-.054.148-.073 1.641-.073 1.704.004.01.129.157.129.157l.023.027.007-.035c.001-.017.07-.424.07-.568 0-.161.259-.85.322-.862a2.29 2.29 0 0 1 .073.587c0 .244-.037.5-.156.649-.18.222-.323.574-.416.807l-.087.197a.23.23 0 0 0-.012.086c0 .189.097.592.161.667.017.018.031.018.04.015.021-.008.04-.035.04-.193 0-.604.507-1.042.513-1.045.447-.355.545-1.013.545-1.514a3.82 3.82 0 0 0-.058-.677c-.07-.105-.142-.209-.214-.313.01.005.068-.042.088-.058l.223.295c.034.048.121.188.121.244 0 .31.048.523.082.679l.008.037c.036.165.26.693.27.716l.024.056.007-.061c0-.002.035-.279 0-.515-.02-.132.005-.295.031-.47l.04-.403c0-.327-.046-.534-.163-.722l-.06-.091c-.023-.037-.046-.073-.043-.08l.043-.019a2.643 2.643 0 0 0 1.563-1.401c.188-.408.198-1.036.198-1.157 0-.157-.007-.973-.144-1.393-.08-.247-.055-.513-.028-.8l.029-.491c0-.336.177-.586.349-.827l.204-.316c.133-.263.062-.494.009-.56Z"/><path d="M16.103 7.421c.015.001.216-.094.216-.094a1.231 1.231 0 0 0-.038-.208c-.144-.172-.29-.343-.436-.514l-.022-.025-.007.032-.047.206-.139.33-.006.014.292.149.187.11Z"/><path d="M16.19 8.74c.046.017.116.009.182-.02.101-.048.161-.129.135-.188l-.046-.041c-.046-.018-.116-.01-.181.02-.087.039-.142.103-.142.158a.1.1 0 0 0 .006.029l.046.042Zm1.747-.722.083.046c.014.029.04.05.071.058a.122.122 0 0 0 .102-.025c.022-.018.027-.051.013-.092-.022-.069-.094-.144-.172-.144-.1 0-.191.011-.191.085 0 .041.048.057.094.072Zm.1.295c-.039.029-.056.067-.045.106l.008.032c.01.038.013.046.048.05l.064.012c.081.021.21-.03.239-.095.01-.021.018-.062-.037-.101a.254.254 0 0 0-.277-.004Zm.26 1.132c-.024-.011-.014-.048.004-.102.015-.044.028-.086.005-.109-.019-.019-.055-.018-.115.004-.216.078-.249.299-.273.46l-.007.049c-.013.072.024.096.047.104.074.027.209-.041.239-.092.034-.056.221-.107.357-.144l.052-.014c.063-.018.095-.042.1-.075.007-.043-.041-.082-.083-.107-.039-.023-.097-.007-.158.011-.061.017-.126.034-.168.015Zm-2.285.083c.048-.005.085-.023.109-.058.069-.102.072-.248.005-.38-.064-.126-.175-.206-.288-.21h.002l-.025-.003-.208.016c-.11.025-.212.106-.237.186-.012.04-.005.077.023.105.167.176.455.356.619.344Zm-2.049-.167c.025.061.139.068.307.018l.037-.011.3-.118.435-.286c.013-.01.127-.095.103-.15-.016-.036-.073-.029-.114-.022-.12.022-.238.08-.363.141l-.177.082-.078.032c-.269.111-.49.211-.45.314Zm-.915.318c-.09 0-.131.049-.164.093l-.041.045c-.069.06-.091.205-.082.314.004.046.017.129.062.156.086.053.127.015.215-.068l.068-.059c.087-.072.187-.154.2-.281a.159.159 0 0 0-.037-.13c-.053-.058-.149-.07-.221-.07Zm.501.04c-.026-.006-.042.002-.05.011-.026.026-.015.08-.007.124l.005.031-.006.019c-.005.016-.012.036 0 .053s.039.024.085.024c.059.001.065-.005.085-.058l.015-.04c.015-.036.015-.068.001-.093-.024-.045-.084-.062-.128-.071Zm.484.784a.12.12 0 0 0 .114-.119.12.12 0 0 0-.114-.12.119.119 0 0 0-.117.118v.002c0 .066.052.119.117.119Zm2.18-.291a.096.096 0 0 0-.091.034c-.032.038-.229.173-.372.271l-.186.132-.015.015c-.023.022-.034.035-.019.08l.022.032.049-.01.072-.026.104-.017c.103-.013.215-.028.268-.082l.069-.113.102-.165c.049-.054.052-.091.045-.112a.064.064 0 0 0-.048-.039Zm.215.665c0 .061.031.085.048.093.046.025.112.001.151-.054l.134-.116c.072-.052.152-.11.224-.201.066-.085.038-.138.014-.16-.045-.044-.138-.055-.17-.029l-.038.027c-.088.056-.294.19-.346.353a.286.286 0 0 0-.017.087Zm.869-.066c-.028-.039-.074-.056-.109-.039l-.094.072c-.066.053-.149.122-.22.142-.173.047-.409.124-.423.243v.016c0 .032.014.052.029.063.065.054.225.022.341-.022.178-.066.285-.146.425-.272.086-.078.082-.156.051-.203Zm-.675 1.371-.056-.006c-.146.039-.395.468-.57.788l-.032.056-.524.984-.165.313c-.018.029-.012.07.016.098.025.025.07.039.124.005.087-.058.406-.375.554-.624l.197-.272c.127-.165.271-.349.355-.569l.03-.076c.2-.519.231-.599.071-.697Zm1.975-1.892h-.005a.114.114 0 0 0-.114.112c0 .061.052.111.116.111s.115-.05.115-.111a.112.112 0 0 0-.112-.112Zm-.058.464c0 .062.052.111.116.111h.002c.061 0 .111-.05.112-.111a.113.113 0 0 0-.114-.111.115.115 0 0 0-.116.111Zm.107.246c-.073 0-.133.049-.133.106 0 .058.06.106.133.106.073 0 .133-.047.133-.106 0-.057-.06-.106-.133-.106Zm-.005.309c-.084 0-.15.052-.15.117s.066.117.15.117c.083 0 .149-.053.149-.117 0-.065-.066-.117-.149-.117Zm.005.391c-.092 0-.168.055-.168.123s.076.123.168.123c.092 0 .167-.055.167-.123s-.075-.123-.167-.123Zm-.057.656c.104-.01.181-.067.175-.133l-.033-.06a.23.23 0 0 0-.162-.04c-.1.009-.175.064-.175.126l.001.007.033.059a.223.223 0 0 0 .161.041Zm-.228.327v-.003.003Zm.222.084c.117-.017.199-.081.19-.147l-.034-.055c-.041-.031-.114-.044-.188-.033-.115.016-.2.081-.19.148l.035.054c.041.032.113.044.187.033Zm-.196.199c0 .072.087.129.202.129.114 0 .201-.057.201-.129 0-.072-.087-.129-.201-.129-.115 0-.202.057-.202.129Zm.357.421c0-.076-.104-.135-.237-.135-.132 0-.236.059-.236.135 0 .076.104.135.236.135.133 0 .237-.059.237-.135Zm-.151.355c0-.074-.078-.135-.173-.135-.096 0-.174.061-.174.135 0 .075.078.135.174.135.095 0 .173-.06.173-.135Zm-.082.444c0-.083-.082-.152-.185-.152-.101 0-.183.069-.183.152 0 .085.082.153.183.153.103 0 .185-.068.185-.153Zm-.15.433c0-.076-.067-.135-.15-.135-.082 0-.151.059-.151.135 0 .074.069.134.151.134.083.001.15-.06.15-.134Zm-.26.256c-.079 0-.145.06-.145.135 0 .074.066.134.145.134.079 0 .144-.061.144-.134.001-.075-.065-.135-.144-.135Zm-.122.648c.081 0 .15-.052.15-.117s-.069-.116-.15-.116c-.082 0-.149.052-.149.116 0 .065.067.117.149.117Zm-.138.284c.075 0 .137-.044.137-.099 0-.055-.061-.099-.137-.099-.079 0-.139.044-.139.099 0 .055.062.099.139.099Zm-.134.274c.072 0 .133-.045.133-.1 0-.055-.061-.099-.133-.099-.074 0-.133.044-.133.099 0 .055.059.1.133.1Zm-3.922-.242.024.004.181-.032c.161-.036.403-.09.701-.098.218-.006.454.07.625.126.156.052.233.075.263.042.019-.021.007-.051-.003-.073-.047-.101-.252-.433-.921-.448-.434-.01-.789.285-.864.41-.015.026-.02.045-.012.059l.006.01Zm2.488 1.257c.042-.027.061-.075.058-.144-.014-.271-.087-.301-.236-.301-.152 0-.261.151-.261.23 0 .074.054.139.16.192.06.032.197.077.279.023Zm2.052 3.308c.216.101.291.137.324.147l.002.003.001-.002c.015.005.02.003.024-.002-.002-.002-.011-.015-.015-.018a.045.045 0 0 0 .005-.008l-.015-.006c-.142-.18-1.002-1.402-1.184-2.206-.029-.132-.063-.256-.149-.305-.049-.027-.11-.029-.185-.004-.018.005-.03.019-.038.04a.183.183 0 0 0-.009.07c0 .287.306 1.078.406 1.24.552.898.823 1.045.833 1.051Zm7.022.349-.032.007c.001.005.008.245.008.553 0 .449-.016 1.048-.093 1.317-.063.218-.353.635-.586.969l-.272.408a.1.1 0 0 0-.011.045c0 .04.02.078.056.101.027.019.126.068.263-.096l.173-.183c.232-.231.519-.518.722-1.151.222-.694-.224-1.958-.228-1.97Zm-7.235 2.263c.021.021.055.027.09.014a.148.148 0 0 0 .1-.128.581.581 0 0 1 .159-.303.277.277 0 0 0-.018-.381l-.115-.046c-.074.003-.129.062-.132.064-.039.185-.077.37-.113.555v-.001c-.011.031-.021.178.029.226Zm3.746 2.049-.006-.003-.005.003c-.005.003-.102.048-.129.143-.019.063.016.118.044.164l.032.06.014.121.022.178a.085.085 0 0 0 .086.061c.046-.002.098-.037.115-.107.024-.096.035-.225.035-.397 0-.157-.199-.221-.208-.223Zm-5.814-1.447c-.013-.015-1.386-1.505-1.683-1.895-.303-.4-.447-.431-.595-.349a.08.08 0 0 0-.039.061c-.021.162.322.556.622.844.42.404 1.66 1.354 1.673 1.364l.022-.025Zm-5.383-4.398c-.278-.173-.76-.269-.765-.271l-.012.029.534.403c.088.073.477.314.602.215a.06.06 0 0 0 .025-.053c-.004-.072-.139-.169-.384-.323Zm-.13-2.28.037-.016c.048-.054-.062-.208-.197-.333-.121-.112-.245-.184-.309-.18l-.037.016a.045.045 0 0 0-.011.034c0 .07.096.194.208.298.121.112.246.185.309.181Zm1.427-.195-.054.003c-.104.044-.269.308-.4.642-.093.235-.163.493-.163.647 0 .074.016.124.051.139l.054-.004c.104-.044.268-.308.401-.641.092-.236.161-.494.161-.649 0-.073-.015-.123-.05-.137Zm-2.57-1.629c-.134 0-.241.064-.241.144 0 .08.107.143.241.143.136 0 .242-.063.242-.143 0-.08-.106-.144-.242-.144Zm-.855 1.78.042-.004c.073-.035.182-.233.265-.478.087-.262.135-.543.05-.573l-.04.004c-.074.036-.184.233-.266.479-.089.262-.134.543-.051.572Zm.224 1.354c.071-.096.086-.203.033-.243l-.062-.013c-.051.006-.112.05-.158.113-.071.096-.086.203-.033.242l.062.015c.051-.008.113-.051.158-.114Zm-.082 1.483-.006-.004-.026-.003c-.096.023-.029.441.021.661.07.308.166.556.232.597l.005.004.027.003c.097-.022.028-.443-.021-.661-.07-.309-.165-.556-.232-.597Zm-.968.562c-.078 0-.14.057-.14.129 0 .068.062.125.14.125.077 0 .141-.057.141-.125.001-.072-.064-.129-.141-.129Zm2.379 3.038a.164.164 0 0 0-.163.161c0 .086.073.158.163.158a.163.163 0 0 0 .165-.158.165.165 0 0 0-.165-.161Zm8.044 4.234c.005.008.02.034.043.032l.009-.001.017-.026.148-.45.115-.299.098-.228c.031-.077.031-.128.001-.157-.047-.044-.145-.007-.157-.002-.008.006-.277.456-.277.456a.548.548 0 0 0-.073.3c0 .158.04.317.076.375Zm.673 2.246.006-.045c.003-.027.084-.652-.108-.894a.235.235 0 0 0-.166-.093c-.058-.005-.097.012-.119.048-.118.192.343.914.363.945l.024.039Zm1.077 1.19h-.002a.165.165 0 1 0 .002.33.165.165 0 0 0 0-.33Zm-2.535-2.015c-.08 0-.147.062-.147.138 0 .078.068.138.147.138.08 0 .146-.06.146-.138 0-.076-.066-.138-.146-.138Zm1.847 2.439-.017-.004c-.088 0-.419.29-.701.579-.025.026-.638.655-.557.737l.005.005.019.004c.089 0 .42-.291.7-.578.027-.027.641-.653.557-.738l-.006-.005Zm-1.84 1.7c-.051 0-.131.048-.203.119-.085.086-.147.204-.102.253l.004.003-.004-.003.046.016c.052 0 .132-.047.203-.12.084-.086.148-.202.1-.251l-.044-.017Zm-.808 1.164c-.062 0-.151.051-.229.13-.081.081-.127.171-.127.234 0 .024.006.043.021.057l.057.021c.062 0 .153-.05.229-.129.113-.115.158-.238.107-.292l-.058-.021Zm-4.221-5.861c-.121 0-.22.069-.22.156s.099.153.22.153c.122 0 .219-.066.219-.153.001-.087-.097-.156-.219-.156Zm1.788.125c-.086 0-.153.047-.153.108 0 .057.067.104.153.104.083 0 .151-.047.151-.104 0-.06-.068-.108-.151-.108Zm2.182.731.013-.021c.025-.103-.49-.263-.765-.333-.331-.084-.723-.152-.81-.1l-.006.004-.014.022c-.025.104.49.262.765.334.33.083.723.148.811.097l.006-.003Z" style="fill:#fff"/></svg>