<svg id="Layer_1" data-name="Layer 1" xmlns="http://www.w3.org/2000/svg" viewBox="0 0 823.93 452.27"><path fill="#FFFFFF" d="M426.74,451.28c3.64-4.87,7.32-9.72,10.93-14.62,22.45-30.53,43-62.19,56.61-97.82,6.22-16.26,10.51-32.94,11-50.48.83-32.21-12.94-56.47-39.89-73.5-21.06-13.3-44.58-19.8-68.83-23.91-44.19-7.49-88.59-6.83-133-3.16A1047.35,1047.35,0,0,0,52,227.7c-15.93,4.71-31.52,10.54-47.27,15.86a7.91,7.91,0,0,1-4.53.54c11.57-7.07,23.09-14.21,34.7-21.2A1743,1743,0,0,1,253.4,111.24c94.2-39.93,190.66-73,291-93.94C594.51,6.84,645.06-.54,696.45-.07,723.86.19,751,2.63,777,12.08c12.83,4.66,24.67,11.09,33.74,21.56,15.51,17.89,15.78,38.42,9.49,59.78-6.93,23.53-19.86,43.9-34.42,63.28-28.17,37.5-61.61,70-96.61,101-62.86,55.61-130.4,105.14-199.5,152.61-20.57,14.14-41.36,28-62.05,41.92Z" transform="translate(-0.19 0.09)"/></svg>
