<svg viewBox="0 0 43 43" xmlns="http://www.w3.org/2000/svg" xml:space="preserve" style="fill-rule:evenodd;clip-rule:evenodd;stroke-linejoin:round;stroke-miterlimit:2"><path d="M41.967 21.68c0 11.322-9.162 20.484-20.484 20.484C10.161 42.164.999 33.002.999 21.68c0-11.322 9.162-20.485 20.484-20.485 11.322 0 20.484 9.163 20.484 20.485ZM21.483 2.439A19.188 19.188 0 0 0 2.242 21.68c0 10.667 8.639 19.241 19.241 19.241 10.667 0 19.241-8.639 19.241-19.241A19.189 19.189 0 0 0 21.483 2.439Z" style="fill:url(#a);fill-rule:nonzero"/><path d="M21.483 2.439A19.188 19.188 0 0 0 2.242 21.68c0 10.667 8.639 19.241 19.241 19.241 10.667 0 19.241-8.639 19.241-19.241A19.189 19.189 0 0 0 21.483 2.439Zm0 37.238c-9.948 0-17.998-8.05-17.998-17.997 0-9.948 8.05-17.998 17.998-17.998S39.48 11.732 39.48 21.68c0 9.947-8.049 17.997-17.997 17.997Z" style="fill:url(#b);fill-rule:nonzero"/><path d="M21.483 42.164c11.322 0 20.484-9.162 20.484-20.484 0-11.322-9.162-20.485-20.484-20.485C10.161 1.195.999 10.358.999 21.68s9.162 20.484 20.484 20.484Zm0-41.427c11.518 0 20.942 9.424 20.942 20.943 0 11.518-9.424 20.942-20.942 20.942S.54 33.198.54 21.68C.54 10.161 9.965.737 21.483.737Z" style="fill:url(#c);fill-rule:nonzero"/><path d="M1.98 21.745c0-10.733 8.704-19.568 19.503-19.568 10.798 0 19.503 8.77 19.503 19.568 0 10.733-8.705 19.437-19.503 19.437-10.799 0-19.503-8.704-19.503-19.437ZM8.067 8.263c-3.469 3.469-5.629 8.247-5.629 13.482 0 5.236 2.16 10.013 5.563 13.416 3.469 3.404 8.246 5.563 13.482 5.563 5.236 0 10.013-2.094 13.416-5.563 3.469-3.403 5.563-8.18 5.563-13.416 0-5.235-2.16-10.013-5.563-13.482a18.785 18.785 0 0 0-13.416-5.628A18.785 18.785 0 0 0 8.067 8.263Z" style="fill:#fff;fill-rule:nonzero"/><path d="M21.483 39.743c-4.843 0-9.359-1.898-12.762-5.301C5.318 31.038 3.42 26.523 3.42 21.68c0-4.843 1.898-9.359 5.301-12.762 3.403-3.403 7.919-5.301 12.762-5.301 4.843 0 9.359 1.898 12.762 5.301 3.403 3.403 5.301 7.919 5.301 12.762 0 4.843-1.898 9.358-5.301 12.762-3.403 3.403-7.919 5.301-12.762 5.301Zm0-.524a17.48 17.48 0 0 0 12.369-5.105c3.338-3.337 5.105-7.722 5.105-12.369 0-4.646-1.833-9.097-5.105-12.369-3.338-3.338-7.723-5.105-12.369-5.105A17.482 17.482 0 0 0 9.114 9.376c-3.338 3.207-5.17 7.657-5.17 12.304 0 4.646 1.832 9.097 5.104 12.369 3.338 3.338 7.788 5.17 12.435 5.17Z" style="fill:url(#d);fill-rule:nonzero"/><path d="M37.386 30.188c-.327-.262-12.958-10.275-12.958-10.275l-2.945-16.82a1.122 1.122 0 0 0-.589.524L18.8 19.978 5.776 29.991s-.262.327-.393.524c-.065.131-.065.327-.065.523l16.099-6.61 16.1 6.61c.131-.327 0-.654-.131-.85Z" style="fill:#fff;fill-rule:nonzero"/><path d="m21.614 22.203-.131 3.011 14.79 5.955c.524.262.917.131 1.309-.131l-15.772-8.9c-.065-.066-.196 0-.196.065Z" style="fill:#565f64;fill-rule:nonzero"/><path d="M21.614 22.203s.851 1.506 1.832 2.553c1.375 1.505 3.207 2.552 3.207 2.552l9.62 3.861c.524.262.917.131 1.309-.131l-15.772-8.9c-.065-.066-.196 0-.196.065Z" style="fill:url(#e);fill-rule:nonzero"/><path d="M37.517 30.449c0-.065-.065-.131-.131-.261l-13.482-9.883-1.832 1.178s.131.066.196 0c.197-.065.589-.131.982 0 .327.131 14.267 9.032 14.267 9.032v-.066Z" style="fill:#a4aaae;fill-opacity:.6;fill-rule:nonzero"/><path d="m37.059 29.86-12.566-9.947-.589.392 13.482 9.948c-.065-.131-.196-.262-.327-.393Z" style="fill:#333e46;fill-rule:nonzero"/><path d="m21.81 21.222-.065.065s0 .131.131.065c.065-.065 1.963-1.047 2.617-1.439l-2.29-15.707c-.066-.589-.327-.851-.786-1.047l.262 18.193.131-.13Z" style="fill:#565f64;fill-rule:nonzero"/><path d="M20.698 4.206v.851l-1.44 14.463c0 .196.065.393.262.524l.85.654.589-15.969.066-1.243c-.197.131-.262.393-.327.72ZM19.912 20.96l-.785-.655-13.285 9.621s-.393.262-.459.523l.459-.261 13.939-8.77c.262-.131.328-.262.131-.458Z" style="fill:#a4aaae;fill-opacity:.6;fill-rule:nonzero"/><path d="M21.287 22.203c0-.065-.066-.131-.131-.065L5.318 31.104c.393.262.785.327 1.309.131l14.79-5.956-.13-3.076Z" style="fill:#565f64;fill-rule:nonzero"/><path d="m21.745 21.287.065-.065-.065.065s0 .065.065.065h.066c.065-.065 1.963-1.047 2.617-1.439l-.261-1.898-2.029-13.809c0-.262-.066-.458-.197-.589 0 0 .982 13.22.982 14.66 0 1.897-1.243 3.01-1.243 3.01Z" style="fill:url(#f);fill-rule:nonzero"/><path d="M21.287 22.203c0-.065-.066-.131-.131-.065L5.318 31.104c.393.262.785.327 1.309.131l14.79-5.956-.13-3.076Z" style="fill:url(#g);fill-rule:nonzero"/><path d="m6.627 31.169 14.79-5.955-.13-2.88c-.262.786-.72 1.636-1.964 2.291-.916.523-9.686 4.843-12.827 6.348-.196.131-.458.196-.589.262.262.131.458.065.72-.066Z" style="fill:url(#h);fill-rule:nonzero"/><path d="m21.81 21.222-.065.065s0 .131.131.065c.065-.065 1.963-1.047 2.617-1.439l-2.29-15.707c-.066-.589-.327-.851-.786-1.047l.262 18.193.131-.13Z" style="fill:url(#i);fill-rule:nonzero"/><path d="m21.81 21.222-.065.065s0 .131.131.065c.065-.065 1.963-1.047 2.617-1.439l-2.29-15.707c-.066-.589-.327-.851-.786-1.047l.262 18.193.131-.13Z" style="fill:url(#j);fill-rule:nonzero"/><path d="M3.878 29.795c-.458-1.047-3.076-6.152-.196-15.969H2.569c-.589 1.964-1.047 3.142-1.309 4.909 0 0-.131.654-.196 1.374-.065.72-.065 1.113-.065 1.571 0 3.926.981 6.217.981 6.217 1.047 3.272 2.88 6.217 5.367 8.442 2.159 1.898 5.497 3.338 8.246 3.862-.458-.066-8.312-3.403-11.715-10.406Z" style="fill:url(#k);fill-rule:nonzero"/><path d="M21.745 22.072h-.589c.065 0 .131 0 .131.066l.13 3.01h.066l.131-3.01c0-.066.065-.131.131-.066Z" style="fill:url(#l);fill-rule:nonzero"/><path d="M28.027 2.243c6.872 2.617 13.351 9.816 13.351 18.913 0 10.995-8.769 19.961-19.895 19.961v1.047c11.126 0 20.484-9.162 20.484-20.484 0-9.032-5.759-16.623-13.94-19.437Z" style="fill:url(#m);fill-rule:nonzero"/><path d="M21.679 1.195h-.196.196Z" style="fill:url(#n);fill-rule:nonzero"/><path d="M39.022 13.957C34.441 3.421 24.101 2.832 23.512 2.766h-.066c7.919 1.44 12.958 6.61 14.725 12.042v.065c.786 2.095 1.178 4.32 1.244 6.741.065 2.291-.458 4.843-1.44 7.199-.065.327-.131.72-.196.72h1.047c3.141-5.89 1.767-11.845.196-15.576Z" style="fill:url(#o);fill-rule:nonzero"/><path d="M1.98 21.745c0-10.733 8.704-19.568 19.503-19.568 10.798 0 19.503 8.77 19.503 19.568 0 10.733-8.705 19.437-19.503 19.437-10.799 0-19.503-8.704-19.503-19.437ZM8.067 8.263c-3.469 3.469-5.629 8.247-5.629 13.482 0 5.236 2.16 10.013 5.563 13.416 3.469 3.404 8.246 5.563 13.482 5.563 5.236 0 10.013-2.094 13.416-5.563 3.469-3.403 5.563-8.18 5.563-13.416 0-5.235-2.16-10.013-5.563-13.482a18.785 18.785 0 0 0-13.416-5.628A18.785 18.785 0 0 0 8.067 8.263Z" style="fill:#fbfbfb;fill-rule:nonzero"/><path d="m5.711 30.057 13.35-9.621c.72.393 1.898.916 2.029.916.131.066.131-.065.131-.065l-1.636-1.374a.597.597 0 0 1-.262-.524l1.571-15.772c-.066.065-.066.196-.131.262-.065.131-.065.196-.065.327l-2.291 15.772L5.842 29.86c-.066.066-.131.131-.131.197Z" style="fill:#333f47;fill-rule:nonzero"/><defs><linearGradient id="a" x1="0" y1="0" x2="1" y2="0" gradientUnits="userSpaceOnUse" gradientTransform="rotate(39.946 -8.84 12.209) scale(40.9754)"><stop offset="0" style="stop-color:white;stop-opacity:1"/><stop offset=".1" style="stop-color:#e7e8e6;stop-opacity:1"/><stop offset=".1" style="stop-color:#cdd0d0;stop-opacity:1"/><stop offset=".2" style="stop-color:#b5bbbd;stop-opacity:1"/><stop offset=".2" style="stop-color:#a5acaf;stop-opacity:1"/><stop offset=".3" style="stop-color:#9ba3a7;stop-opacity:1"/><stop offset=".3" style="stop-color:#98a0a4;stop-opacity:1"/><stop offset=".4" style="stop-color:#828a8f;stop-opacity:1"/><stop offset=".5" style="stop-color:#667075;stop-opacity:1"/><stop offset=".6" style="stop-color:#535c63;stop-opacity:1"/><stop offset=".7" style="stop-color:#475158;stop-opacity:1"/><stop offset=".8" style="stop-color:#434d54;stop-opacity:1"/><stop offset="1" style="stop-color:#475157;stop-opacity:1"/></linearGradient><linearGradient id="b" x1="0" y1="0" x2="1" y2="0" gradientUnits="userSpaceOnUse" gradientTransform="rotate(40.03 -9.4 13.931) scale(38.4617)"><stop offset="0" style="stop-color:#0b1f2a;stop-opacity:1"/><stop offset=".2" style="stop-color:#333f47;stop-opacity:1"/><stop offset=".5" style="stop-color:#777f84;stop-opacity:1"/><stop offset=".5" style="stop-color:#81898d;stop-opacity:1"/><stop offset=".7" style="stop-color:#b3b8b8;stop-opacity:1"/><stop offset=".8" style="stop-color:#d2d5d3;stop-opacity:1"/><stop offset=".8" style="stop-color:#dee0dd;stop-opacity:1"/><stop offset="1" style="stop-color:#fbfbfb;stop-opacity:1"/></linearGradient><linearGradient id="c" x1="0" y1="0" x2="1" y2="0" gradientUnits="userSpaceOnUse" gradientTransform="rotate(-109.991 28.823 10.655) scale(41.924)"><stop offset="0" style="stop-color:#e1e3e1;stop-opacity:.4"/><stop offset=".1" style="stop-color:#c1c5c4;stop-opacity:.4"/><stop offset=".3" style="stop-color:#9ba1a2;stop-opacity:.4"/><stop offset=".5" style="stop-color:#7d8487;stop-opacity:.4"/><stop offset=".7" style="stop-color:#687074;stop-opacity:0"/><stop offset=".8" style="stop-color:#5b6469;stop-opacity:0"/><stop offset="1" style="stop-color:#576065;stop-opacity:0"/></linearGradient><linearGradient id="d" x1="0" y1="0" x2="1" y2="0" gradientUnits="userSpaceOnUse" gradientTransform="scale(36.1231) rotate(59.998 .028 .382)"><stop offset="0" style="stop-color:#e1e3e1;stop-opacity:.4"/><stop offset=".1" style="stop-color:#c1c5c4;stop-opacity:.4"/><stop offset=".3" style="stop-color:#9ba1a2;stop-opacity:.4"/><stop offset=".5" style="stop-color:#7d8487;stop-opacity:.4"/><stop offset=".7" style="stop-color:#687074;stop-opacity:0"/><stop offset=".8" style="stop-color:#5b6469;stop-opacity:0"/><stop offset="1" style="stop-color:#576065;stop-opacity:0"/></linearGradient><linearGradient id="e" x1="0" y1="0" x2="1" y2="0" gradientUnits="userSpaceOnUse" gradientTransform="scale(-2.14376) rotate(-58.736 -17.911 6.108)"><stop offset="0" style="stop-color:#27343c;stop-opacity:1"/><stop offset="1" style="stop-color:#00111e;stop-opacity:0"/></linearGradient><linearGradient id="f" x1="0" y1="0" x2="1" y2="0" gradientUnits="userSpaceOnUse" gradientTransform="rotate(-121.891 18.723 2.542) scale(3.46859)"><stop offset="0" style="stop-color:#02131f;stop-opacity:1"/><stop offset=".1" style="stop-color:#02131f;stop-opacity:1"/><stop offset=".9" style="stop-color:#02131f;stop-opacity:0"/><stop offset="1" style="stop-color:#02131f;stop-opacity:0"/></linearGradient><linearGradient id="g" x1="0" y1="0" x2="1" y2="0" gradientUnits="userSpaceOnUse" gradientTransform="rotate(164.055 9.022 13.784) scale(2.85869)"><stop offset="0" style="stop-color:#02131f;stop-opacity:.8"/><stop offset=".2" style="stop-color:#02131f;stop-opacity:.8"/><stop offset=".9" style="stop-color:#02131f;stop-opacity:0"/><stop offset="1" style="stop-color:#02131f;stop-opacity:0"/></linearGradient><linearGradient id="h" x1="0" y1="0" x2="1" y2="0" gradientUnits="userSpaceOnUse" gradientTransform="rotate(-111.801 16.609 9.288) scale(1.0573)"><stop offset="0" style="stop-color:#02131f;stop-opacity:.8"/><stop offset=".1" style="stop-color:#02131f;stop-opacity:.8"/><stop offset="1" style="stop-color:#02131f;stop-opacity:0"/></linearGradient><linearGradient id="i" x1="0" y1="0" x2="1" y2="0" gradientUnits="userSpaceOnUse" gradientTransform="scale(-2.24049) rotate(-6.71 -50.98 88.076)"><stop offset="0" style="stop-color:#02131f;stop-opacity:1"/><stop offset=".3" style="stop-color:#02131f;stop-opacity:1"/><stop offset=".8" style="stop-color:#02131f;stop-opacity:0"/><stop offset="1" style="stop-color:#02131f;stop-opacity:0"/></linearGradient><linearGradient id="j" x1="0" y1="0" x2="1" y2="0" gradientUnits="userSpaceOnUse" gradientTransform="rotate(172.569 11.565 6.74) scale(1.51799)"><stop offset="0" style="stop-color:#27343c;stop-opacity:1"/><stop offset=".4" style="stop-color:#27343c;stop-opacity:1"/><stop offset="1" style="stop-color:#3b474e;stop-opacity:0"/></linearGradient><linearGradient id="k" x1="0" y1="0" x2="1" y2="0" gradientUnits="userSpaceOnUse" gradientTransform="rotate(29.988 -41.433 11.655) scale(21.0813)"><stop offset="0" style="stop-color:#24303a;stop-opacity:0"/><stop offset="0" style="stop-color:#25323b;stop-opacity:0"/><stop offset=".1" style="stop-color:#27343c;stop-opacity:1"/><stop offset="1" style="stop-color:#27343c;stop-opacity:1"/></linearGradient><linearGradient id="l" x1="0" y1="0" x2="1" y2="0" gradientUnits="userSpaceOnUse" gradientTransform="rotate(-90 23.348 1.865) scale(3.14137)"><stop offset="0" style="stop-color:#a5abaf;stop-opacity:1"/><stop offset=".3" style="stop-color:#a5abaf;stop-opacity:1"/><stop offset="1" style="stop-color:#a5abaf;stop-opacity:0"/></linearGradient><linearGradient id="m" x1="0" y1="0" x2="1" y2="0" gradientUnits="userSpaceOnUse" gradientTransform="rotate(90 14.758 17) scale(39.9215)"><stop offset="0" style="stop-color:#dee0dd;stop-opacity:1"/><stop offset="0" style="stop-color:#c5c9c7;stop-opacity:1"/><stop offset="0" style="stop-color:#9ea4a5;stop-opacity:1"/><stop offset="0" style="stop-color:#82898c;stop-opacity:1"/><stop offset="0" style="stop-color:#71797d;stop-opacity:1"/><stop offset="0" style="stop-color:#6b7378;stop-opacity:1"/><stop offset=".2" style="stop-color:#333f47;stop-opacity:1"/><stop offset=".5" style="stop-color:#27343c;stop-opacity:1"/><stop offset=".8" style="stop-color:#333f47;stop-opacity:1"/><stop offset="1" style="stop-color:#434d54;stop-opacity:1"/></linearGradient><linearGradient id="n" x1="0" y1="0" x2="1" y2="0" gradientUnits="userSpaceOnUse" gradientTransform="matrix(0 0 0 0 21.548 1.195)"><stop offset="0" style="stop-color:#dee0dd;stop-opacity:1"/><stop offset="0" style="stop-color:#c5c9c7;stop-opacity:1"/><stop offset="0" style="stop-color:#9ea4a5;stop-opacity:1"/><stop offset="0" style="stop-color:#82898c;stop-opacity:1"/><stop offset="0" style="stop-color:#71797d;stop-opacity:1"/><stop offset="0" style="stop-color:#6b7378;stop-opacity:1"/><stop offset=".2" style="stop-color:#333f47;stop-opacity:1"/><stop offset=".5" style="stop-color:#27343c;stop-opacity:1"/><stop offset=".8" style="stop-color:#333f47;stop-opacity:1"/><stop offset="1" style="stop-color:#434d54;stop-opacity:1"/></linearGradient><linearGradient id="o" x1="0" y1="0" x2="1" y2="0" gradientUnits="userSpaceOnUse" gradientTransform="matrix(-8.8351 12.9581 -12.9581 -8.8351 38.04 6.038)"><stop offset="0" style="stop-color:#27343c;stop-opacity:1"/><stop offset=".7" style="stop-color:#2b373f;stop-opacity:1"/><stop offset=".7" style="stop-color:#36424a;stop-opacity:1"/><stop offset=".7" style="stop-color:#49545b;stop-opacity:1"/><stop offset=".8" style="stop-color:#646d73;stop-opacity:0"/><stop offset=".8" style="stop-color:#868d92;stop-opacity:0"/><stop offset=".8" style="stop-color:#b0b5b8;stop-opacity:0"/><stop offset=".8" style="stop-color:#e1e3e4;stop-opacity:0"/><stop offset="1" style="stop-color:white;stop-opacity:0"/></linearGradient></defs></svg>