<svg viewBox="0 0 62 24" xmlns="http://www.w3.org/2000/svg" xml:space="preserve" style="fill-rule:evenodd;clip-rule:evenodd;stroke-linejoin:round;stroke-miterlimit:2"><path d="M19.734 11.835A11.494 11.494 0 0 1 31.238.332a11.493 11.493 0 0 1 11.503 11.503 11.493 11.493 0 0 1-11.503 11.504c-6.361 0-11.504-5.172-11.504-11.504Z" style="fill:#fdd306;fill-rule:nonzero"/><path d="M22.974 15.105c-.654.03-1.07.179-1.516.238.03.416.268.773.594 1.219.179-.684.744-.951.922-1.457Zm-.981-10.106c.179.089.357.178.565.297.862.594 1.427 1.1 2.735 2.199.386.387.832 1.011 1.159 1.398.713.892 1.219 1.516 1.308 2.259.208 1.486.416 2.318.981 3.835.059.148.297.356.446.534.356.446.505 1.16 1.159 1.546.357.208.416.238.535.327.179.149-.119.684-1.04.565.475.238.416.773-.268.803-1.337.059-2.17-.714-2.348-.922-.089-.089-.357.268-.832.446-.476.238-1.13 0-1.635.089-.476.089-1.1.387-1.605.416-.892.03-1.011-.594-1.011-1.129v-.238c-.09.327-.416.892-.416.892-.119.267-.298.594-.625.713l-.951.119c-.743.327-1.486.565-2.259.832-.446.089-.951 0-1.278-.267-.268-.208-.416-.476-.565-.743-.148-.06-.356 0-.535-.06-.149-.03-.238-.148-.327-.238l-.654-1.099a.745.745 0 0 1 0-.506c.119-.238.386-.357.654-.357.476-.029 1.011-.178 1.486 0 .208-.237.535-.207.833-.267-.119-.178-.298-.268-.446-.416-.862.208-1.813.059-2.646-.089-.773-.179-1.427.267-2.199.148l-.238.506c-.357.386-.387 1.04-.922 1.308-.386.089-.683.356-1.01.535-.595.327-1.398.178-2.052.059a1.32 1.32 0 0 0-.683.089c-.208.149-.446.387-.684.565-.386.148-.713.475-1.13.505-.237 0-.475-.148-.713-.089-.297.327-.446.862-.921 1.011-.476.149-1.071.029-1.546-.089-.149.059-.238.178-.416.148-.327-.089-.654-.178-.951-.356-.119-.12-.149-.268-.179-.387 0-.208.179-.386.268-.565.029-.208.029-.505.119-.713.148-.327.475-.535.802-.684a.766.766 0 0 1 .387-.564c.386-.209.802-.684 1.308-.416l.535.445c.475-.208.356-.684.594-1.07.119-.267.267-.565.565-.565.208-.03.446.03.654 0 .297-.089.624-.208.832-.446l-.03-.178c-.297-.565-.386-1.248-.416-1.932-.535.059-1.1.149-1.664.03-.833-.119-1.635-.773-1.962-1.605-.357-.803-.208-1.933.356-2.617a9.667 9.667 0 0 1 1.487-1.426c-.179-.06-.387-.03-.565-.09-.773-.118-1.546-.802-1.724-1.575-.119-.505 0-.981.238-1.397.089-.089.178-.178.327-.119.386.149.505.357.862.535l.208.119c.981.327 2.289.327 2.675 1.546.238.951-.357 1.665-1.04 2.2-.536.386-1.07.862-1.338 1.426-.119.416-.059.833.297 1.13.357.357.981.357 1.427.178.832-.356 1.605-.892 2.349-1.456.713-.535 1.575-.743 2.497-.773a2.54 2.54 0 0 0 1.099-.535c.565-.535 1.16-.981 1.873-1.159.327-.06.654-.09.981-.12.268-.118.446-.445.654-.594.981-.862 2.289-.832 3.329-1.516.594-.446 1.249-.743 2.022-.713.356.03.683.089.98.208l.238.119ZM40.334 17.454c-.03.089-.089.119-.208.119.089.416-.208 1.189-.951 1.218-.506.03-1.338-.475-1.814-.505-.505-.03-1.426.357-1.962-.446-.713.862-1.545 1.1-2.259 1.07-.416 0-.862-.238-.238-.773-1.367.446-1.367-.475-1.129-.653.149-.119.327-.209.832-.714 1.902-1.992 1.189-5.44 3.27-7.729.803-.891 1.456-1.397 3.091-2.556.565-.387 1.13-.951 1.665-1.337l.03.059v-.03c.327-.238.624-.475.981-.565.743-.089 1.427.149 1.991.536.298.208.535.445.773.742.179.179.446.179.684.268.684.119 1.278.386 1.843.743.386.238.713.654 1.189.714.564.089 1.07.267 1.575.564.595.387 1.13.862 1.843.981 1.427.149 2.616.952 3.746 1.754.654.386 1.426.832 2.229.565a.799.799 0 0 0 .476-.505c.059-.536-.268-.952-.595-1.338-.684-.803-1.872-1.486-1.724-2.646.208-.862 1.159-1.367 1.903-1.605.416-.148.921-.089 1.278-.446.178-.119.267-.535.564-.386.238.149.268.446.298.713.118.832-.06 1.665-.833 2.14-.356.238-.743.327-1.159.417.624.505 1.248 1.129 1.605 1.843.209.416.327.772.357 1.248-.03.892-.565 1.665-1.338 2.111-.446.237-.951.327-1.486.327-.208 0-.386-.06-.565-.06.09.416.09.981 0 1.456-.029.239-.178.506-.178.803.119.149.297.149.446.149.386 0 .862-.03 1.07.386.178.387.267.833.416 1.219.059.06.089.208.178.179.268-.239.535-.565.922-.476.357.237.713.505 1.07.773.089.089.119.208.149.356.297.119.683.327.773.684.059.238.029.475.089.684.089.237.327.535.148.832l-.119.089-1.129.357c-.089 0-.178-.059-.268-.149-.594-.03-1.308.149-1.783-.267a2.585 2.585 0 0 1-.505-.625c-.357.179-.863.298-1.219.06-.743-.565-1.487-1.13-2.497-1.1-.446.089-.981.208-1.427.03-.416-.297-.892-.446-1.219-.892-.475-.505-.475-1.1-.654-1.724-.654.149-1.367.059-2.021.03-.535-.03-1.04.059-1.546.178a8.583 8.583 0 0 1-1.962.149l-.327.238c.149.029.298.029.416.148l.119.119c.536.06 1.16-.029 1.665.089.119.03.238.149.297.268.06.149.06.327-.03.446-.267.356-.416.772-.772 1.07-.09.119-.357-.03-.387.178-.119.535-.624.981-1.129 1.1-.208.029-.446 0-.625-.06a45.892 45.892 0 0 0-1.872-.564c-.208-.06-.386-.268-.565-.387-.267 0-.654.089-.832-.148-.09-.06-.179-.268-.208-.357-.208-.268-.357-.743-.446-1.159Zm-.624-2.2c.297.446.475.892.743 1.367.267-.505.505-.981.743-1.278-.03-.03-.803.06-1.486-.089Z" style="fill:#fdd306;fill-rule:nonzero"/><path d="M18.545 17.513c.03.119.208.268.089.387-.237.178-.505.297-.832.267-.238-.178-.208-.505-.416-.743-.06-.179-.327-.179-.268-.357l.089-.059c.327 0 .654 0 .981-.059.327-.03.238.356.357.564Zm-14.892.119c-.149.297-.357.654-.684.832a.582.582 0 0 1-.387-.029c-.059-.06-.178-.119-.178-.238.03-.119-.03-.268.089-.327.238-.149.476-.297.714-.505.059-.03.178-.06.208 0 .119.089.208.148.238.267ZM2.345 18.88v.09c-.149.356-.238.772-.357 1.188a2.481 2.481 0 0 1-.713-.207c-.06-.06 0-.119 0-.179.267-.238.178-.535.237-.862.03-.178.208-.327.387-.416.208.03.327.238.446.386ZM4.128 5.593c.713.179 1.486.179 2.022.743.297.357.326.981.089 1.338-.417.713-1.249 1.07-1.754 1.694-.506.417-.684 1.07-.535 1.724.178.565.743.952 1.308.982.892.029 1.545-.417 2.259-.833.713-.505 1.367-1.159 2.17-1.367.535-.179 1.13-.089 1.664-.297.565-.12 1.011-.595 1.457-1.011.505-.416 1.1-.654 1.754-.625.594.09.922-.446 1.338-.802.683-.624 1.575-.684 2.378-1.041.564-.178 1.01-.594 1.545-.861.506-.209 1.189-.268 1.695-.06.326.149.683.297.98.535l2.408 2.021c.03.09.119.149.179.179.683.832 1.397 1.635 1.962 2.556.178.327.267.654.356 1.011.119 1.367.476 2.556.922 3.745.119.179.356.327.475.505.387.536.624 1.22 1.249 1.576l.357.179c.029.029.029.089 0 .118l-.06.06c-.743.119-1.308-.327-1.694-.862-.238-.476-.565-.981-1.1-1.189-.03 0-.059.029-.059.029.059.179.237.298.297.446.208.327.386.684.475 1.041.119.386.535.654.862.862l.476.237c.059.03.089.119.03.179l-.06.03c-.802.029-1.516-.238-2.08-.833-.12-.148-.298-.267-.506-.267-.357.327-.713.624-1.189.654-.505-.089-1.04-.089-1.486.089-.416.148-.832.327-1.278.327-.208 0-.446-.089-.536-.297 0-.268-.178-.565-.029-.833l.297-.446c0-.059-.03-.118-.089-.118-.119-.03-.327.178-.387-.03.03-.446.476-.743.774-1.041.059-.356.208-.683.475-.981 0-.029-.03-.089-.089-.089-.386.06-.773.149-1.189.149-.327.178-.743.297-1.13.178-.089-.059-.059-.149-.03-.208a2.56 2.56 0 0 0 .446-1.962c-.029-.029-.029-.089-.089-.089-.059 0-.059.06-.089.089-.089.654-.297 1.16-.654 1.724-.267.268-.684.268-1.04.357-.09.03-.179.119-.179.208 0 .238.149.387.238.595l.773 1.427c.03.386-.149.772-.238 1.129.03.059.089.03.149 0 .267-.238.446-.565.565-.922.029-.148-.03-.326-.09-.445l-.802-1.606c.059-.089.178-.089.267-.118.179 0 .357.089.535.148.179.476.387.981.714 1.397.059.268.148.624-.03.833a6.706 6.706 0 0 1-.594.981c-.208.208-.506.178-.803.208h-.089c-.714.386-1.457.624-2.23.862-.327.148-.713.029-.981-.179-.267-.208-.386-.505-.564-.773-.208-.267-.535-.029-.773-.178-.208-.327-.416-.654-.595-1.01 0-.09 0-.179.09-.238.267-.089.564-.089.862-.119.267-.03.564.03.743.208.356.416.505.981 1.04 1.248.416.03.773-.089 1.13-.267.208-.119.445-.297.445-.565-.029-.535-.386-.951-.832-1.249-.446-.237-.921-.564-1.248-.98-.179-.238-.208-.506-.298-.744-.029-.059-.148-.059-.178-.029-.178.148-.03.416-.03.594.03.119.09.268.03.357-.268.208-.624.089-.951.119-.654-.03-1.278-.297-1.962-.238-.654.03-1.546.476-2.021-.178-.238-.625-.179-1.368-.06-1.992 0-.059-.059-.119-.119-.119-.059-.029-.119 0-.148.06-.179.624-.208 1.308-.357 1.961-.238.565-.654 1.16-1.219 1.457-.505.268-1.1.357-1.724.416-1.129.03-2.17.238-2.883 1.219-.06.089-.149.178-.119.297.03.03.119.06.148.03.773-.862 1.754-1.219 2.884-1.159 1.07 0 2.14-.179 2.824-1.1.178-.208.297-.416.446-.654.118 0 .208.149.297.208.03.327-.238.535-.357.803-.148.297-.297.654-.594.832-.357.089-.654.327-.981.505a1.816 1.816 0 0 1-1.13.119c-.475-.089-1.13-.208-1.605 0-.238.149-.446.416-.684.565-.327.148-.624.416-1.01.386-.268-.059-.595-.238-.833 0-.297.268-.356.744-.743.922-.446.238-.921 0-1.367-.03.059-.446.119-.862.416-1.189.178-.03.327-.059.475-.178.179-.149.298-.357.417-.565.386-.238.832-.416 1.07-.833.178-.386.178-.742.475-1.099l.149-.06.803-.059c.327-.149.624-.298.921-.535.089-.089.119-.238.089-.387-.148-.386-.267-.654-.357-1.07-.089-.416-.029-.832-.089-1.308-.029-.029-.059-.119-.119-.119-.534.119-1.04.268-1.635.179-.802-.089-1.634-.624-1.932-1.427-.267-.684-.208-1.665.298-2.229.475-.595 1.07-1.041 1.664-1.546.09-.06.09-.179.119-.268 0-.118-.119-.208-.208-.267-.357-.09-.773.029-1.129-.119-.625-.208-1.1-.803-1.19-1.457-.029-.297.03-.535.179-.772.475.416.832.772 1.278.891Zm21.7 10.85c.029.178.029.446-.149.565a1.449 1.449 0 0 1-.624.059c-.06-.029-.119-.059-.089-.118.089-.268.357-.566.654-.625.059 0 .178 0 .208.119Zm.624-3.537c.327.386.565.802.446 1.308-.06.089-.03.267-.179.297-.059.03-.118-.03-.118-.089-.03-.268-.03-.565-.179-.773-.178-.179-.386-.535-.683-.535-.208.059-.357.297-.476.446 0 .029-.03.029-.059 0-.119-.298.119-.535.208-.773.178-.179.148-.684.535-.535.267.178.327.475.505.654Zm-4.756-4.162c.178.446.178 1.041.059 1.516-.029.03-.059.03-.089 0-.089-.416-.178-.832-.327-1.249-.089-.237-.386-.445-.267-.713.059-.059.178-.059.267-.029.149.148.238.297.357.475ZM44.733 17.186a2.67 2.67 0 0 1-.238.832c-.089.179-.356.119-.535.09-.178-.06-.475-.09-.505-.357-.03-.238.089-.476.208-.654.268-.03.594.03.862-.03.119 0 .208.03.208.119Zm14.328.238c.238.208.565.357.743.624.029.119-.06.238-.119.327a.493.493 0 0 1-.357.149c-.148 0-.267-.089-.357-.208-.148-.238-.356-.446-.416-.684.09-.148.298-.387.506-.208Zm1.516 1.338c.148.208.089.534.148.772.03.179.268.328.149.506l-.654.208c-.119 0-.059-.149-.119-.208-.059-.387-.148-.654-.268-1.011-.029-.208.179-.357.328-.476.148-.059.267.119.416.209ZM43.604 5.623c.327.208.446.654.832.743.654.149 1.308.297 1.902.594.416.209.803.506 1.189.833.357.178.803.178 1.189.297.565.149 1.011.565 1.516.892.654.505 1.576.446 2.319.773 1.189.386 2.14 1.308 3.24 1.843.565.297 1.427.416 1.992.089.386-.268.624-.624.534-1.13-.208-1.218-1.545-1.842-2.169-2.853-.119-.238-.208-.565-.149-.833.238-.594.862-.921 1.397-1.129.416-.208.951-.149 1.338-.386.148-.09.267-.208.357-.298.089 0 .089.09.118.149.119.713 0 1.456-.624 1.872-.238.179-.535.238-.802.298-.239.089-.714-.089-.684.327.06.208.238.327.386.475.832.684 1.606 1.576 1.695 2.646.029.832-.535 1.545-1.249 1.902-.535.209-1.189.298-1.754.149-.148-.03-.386-.178-.505.03-.03.238.119.416.119.624.059.386.059.892-.059 1.278-.06.297-.357.654-.09.951.268.416.803.298 1.249.357.237.03.327.297.386.476.089.237.089.505.178.683 0 .446.506.625.744.922.297.327.564.891 1.07.862.178.357.268.683.327 1.099l-.059.06c-.417 0-.982.119-1.279-.178-.357-.238-.475-.892-1.01-.714-.238.179-.565.238-.833.119-.267-.089-.446-.327-.683-.475-.714-.535-1.665-.803-2.586-.595-.536.149-.952-.238-1.368-.475-.565-.238-.713-.833-.832-1.338l-.089-.624c0-.06.059-.119.118-.149h.09c.327.743.951 1.576 1.753 1.843.744.297 1.427-.089 2.23.059.743.09 1.338.565 1.902 1.011.06 0 .089-.03.119-.089v-.06c-.683-.862-1.635-1.308-2.735-1.218-.921.178-1.813-.119-2.348-.892a3.749 3.749 0 0 1-.594-1.427c-.089-.594-.209-1.248-.417-1.783-.059-.03-.118-.089-.178-.06l-.059.089c.089.565.267 1.249.059 1.843-.148.476-.624.654-1.07.684-.446.03-.862-.06-1.338-.06-1.07-.029-2.021.387-3.121.298.089-.268.268-.535.178-.833-.029-.059-.118-.059-.178-.059-.208.119-.178.386-.297.565-.238.386-.684.743-1.13.832-.326.238-.624.565-.891.862-.089.09-.089.268-.06.387.208.535.833.594 1.308.743.238.029.446-.06.565-.268.208-.327.238-.862.713-.921h1.041c.089.03.148.089.207.178l-.029.149c-.238.267-.327.654-.624.832-.179.059-.387 0-.506.149-.059.356-.148.743-.505.921-.267.238-.654.119-.951.03-.565-.208-1.13-.327-1.694-.506-.238-.059-.327-.356-.595-.416-.238-.059-.505.119-.713-.089a3.073 3.073 0 0 1-.238-.743 1.979 1.979 0 0 1-.179-.595.747.747 0 0 1 .06-.445l.773-1.397c.059-.09.119-.179.208-.209.178.03.386.119.564.209l-.029.089-.803 1.219c-.178.386 0 .832.179 1.159.029.03.059.089.089.059-.03-.238-.06-.475 0-.743.059-.237.208-.446.327-.654l.624-.921c.059-.149.059-.387-.059-.535-.268-.268-.654-.357-.892-.714-.506-.683-.565-1.486-.624-2.348 0-.06-.06-.149-.149-.179-.06-.029-.119.06-.149.089-.148.566-.059 1.249.089 1.755.09.386.268.772.446 1.129.03.059-.029.149-.089.179-.416.029-.832 0-1.218-.06-.535-.089-.922-.505-1.368-.832-.059-.03-.089.029-.119.059.119.594.773.951.981 1.486.119.446.565.773.654 1.249 0 .06-.059.149-.119.178-.148.03-.297-.059-.446.03-.029.268.149.535.03.773-.148.238-.357.505-.624.505-.535-.178-1.07-.416-1.605-.565-.387-.029-.773.03-1.13.06-.356-.06-.594-.386-.862-.565-.089-.03-.178-.03-.238.03-.594.594-1.248 1.248-2.14 1.218-.059 0-.089-.059-.089-.118v-.06c.386-.357.862-.713 1.04-1.219.119-.416.476-.713.625-1.099.029-.06-.03-.09-.09-.119l-.089.059c-.446.446-.773.952-1.1 1.427-.327.327-.802.535-1.308.416-.059-.03-.059-.119-.029-.178 1.843-1.13 2.051-3.151 2.556-4.994.357-1.219.624-2.467 1.576-3.448 1.426-1.576 3.21-2.497 4.785-3.864.238-.208.476-.417.773-.417.773-.059 1.368.238 1.903.684Zm-1.695 1.902c.09.119 0 .238-.059.327-.416.387-.922.803-1.219 1.279a1.623 1.623 0 0 0-.267.505c0 .03-.03.03-.06.03-.089-.238.03-.506.089-.744.208-.564.684-1.099 1.189-1.486.06-.03.268-.059.327.089Zm-4.459 9.096c.06.119.179.268.09.417-.119.089-.327.029-.476.029-.179-.089-.238-.327-.238-.535 0-.059 0-.089.059-.149.209 0 .417.06.565.238Zm-.119-3.953c.179.238.327.476.446.773.03.059 0 .119-.029.178-.03.06-.09.119-.179.06-.208-.06-.178-.387-.445-.357-.179 0-.298.148-.446.238-.268.237-.625.475-.684.832-.06.119-.03.327-.149.386-.059.03-.148-.03-.148-.089-.03-.475.119-.921.446-1.248.326-.268.564-.654.832-.981.178-.03.297.089.356.208Z" style="fill:#e11c4e;fill-rule:nonzero"/></svg>